<svg width="680" height="202" viewBox="0 0 680 202" fill="none" xmlns="http://www.w3.org/2000/svg">
<rect width="680" height="202" rx="10" fill="black" fill-opacity="0.3"/>
<path d="M329.333 81.3333V82.6666C329.333 83.7275 329.754 84.7449 330.505 85.495C331.255 86.2452 332.272 86.6666 333.333 86.6666H346.666C347.727 86.6666 348.745 86.2452 349.495 85.495C350.245 84.7449 350.666 83.7275 350.666 82.6666V81.3333M345.333 70.6666L340 65.3333M340 65.3333L334.666 70.6666M340 65.3333V81.3333" stroke="white" stroke-width="2" stroke-linecap="round" stroke-linejoin="round"/>
<path d="M242.29 114.6V130H240.178V127.822C239.137 129.391 237.465 130.176 235.162 130.176C233.329 130.176 231.891 129.619 230.85 128.504C229.823 127.389 229.31 125.798 229.31 123.73V114.6H231.51V123.664C231.51 125.145 231.877 126.275 232.61 127.052C233.343 127.829 234.348 128.218 235.624 128.218C237.003 128.218 238.095 127.807 238.902 126.986C239.709 126.165 240.112 124.947 240.112 123.334V114.6H242.29ZM252.783 118.23C253.912 118.23 254.924 118.479 255.819 118.978C256.713 119.477 257.41 120.173 257.909 121.068C258.422 121.963 258.679 122.997 258.679 124.17C258.679 125.343 258.422 126.385 257.909 127.294C257.41 128.189 256.713 128.885 255.819 129.384C254.924 129.883 253.912 130.132 252.783 130.132C251.947 130.132 251.177 129.971 250.473 129.648C249.783 129.325 249.197 128.856 248.713 128.24V134.268H246.601V118.34H248.625V120.188C249.094 119.543 249.688 119.059 250.407 118.736C251.125 118.399 251.917 118.23 252.783 118.23ZM252.607 128.284C253.355 128.284 254.022 128.115 254.609 127.778C255.21 127.426 255.679 126.942 256.017 126.326C256.369 125.695 256.545 124.977 256.545 124.17C256.545 123.363 256.369 122.652 256.017 122.036C255.679 121.405 255.21 120.921 254.609 120.584C254.022 120.247 253.355 120.078 252.607 120.078C251.873 120.078 251.206 120.254 250.605 120.606C250.018 120.943 249.549 121.42 249.197 122.036C248.859 122.652 248.691 123.363 248.691 124.17C248.691 124.977 248.859 125.695 249.197 126.326C249.534 126.942 250.003 127.426 250.605 127.778C251.206 128.115 251.873 128.284 252.607 128.284ZM265.139 130.132C264.009 130.132 263.137 129.824 262.521 129.208C261.905 128.577 261.597 127.697 261.597 126.568V113.676H263.709V126.392C263.709 127.023 263.855 127.507 264.149 127.844C264.457 128.181 264.911 128.35 265.513 128.35C265.879 128.35 266.224 128.277 266.547 128.13L266.657 129.868C266.173 130.044 265.667 130.132 265.139 130.132ZM273.444 130.132C272.286 130.132 271.244 129.875 270.32 129.362C269.396 128.849 268.67 128.145 268.142 127.25C267.629 126.341 267.372 125.314 267.372 124.17C267.372 123.026 267.629 122.007 268.142 121.112C268.67 120.203 269.396 119.499 270.32 119C271.244 118.487 272.286 118.23 273.444 118.23C274.603 118.23 275.637 118.487 276.546 119C277.47 119.499 278.189 120.203 278.702 121.112C279.23 122.007 279.494 123.026 279.494 124.17C279.494 125.314 279.23 126.341 278.702 127.25C278.189 128.145 277.47 128.849 276.546 129.362C275.637 129.875 274.603 130.132 273.444 130.132ZM273.444 128.284C274.192 128.284 274.86 128.115 275.446 127.778C276.048 127.426 276.517 126.942 276.854 126.326C277.192 125.695 277.36 124.977 277.36 124.17C277.36 123.363 277.192 122.652 276.854 122.036C276.517 121.405 276.048 120.921 275.446 120.584C274.86 120.247 274.192 120.078 273.444 120.078C272.696 120.078 272.022 120.247 271.42 120.584C270.834 120.921 270.364 121.405 270.012 122.036C269.675 122.652 269.506 123.363 269.506 124.17C269.506 124.977 269.675 125.695 270.012 126.326C270.364 126.942 270.834 127.426 271.42 127.778C272.022 128.115 272.696 128.284 273.444 128.284ZM293.415 118.34V130H291.391V128.152C290.922 128.797 290.328 129.289 289.609 129.626C288.89 129.963 288.098 130.132 287.233 130.132C286.104 130.132 285.092 129.883 284.197 129.384C283.302 128.885 282.598 128.189 282.085 127.294C281.586 126.385 281.337 125.343 281.337 124.17C281.337 122.997 281.586 121.963 282.085 121.068C282.598 120.173 283.302 119.477 284.197 118.978C285.092 118.479 286.104 118.23 287.233 118.23C288.069 118.23 288.839 118.391 289.543 118.714C290.247 119.022 290.834 119.484 291.303 120.1V118.34H293.415ZM287.409 128.284C288.142 128.284 288.81 128.115 289.411 127.778C290.012 127.426 290.482 126.942 290.819 126.326C291.156 125.695 291.325 124.977 291.325 124.17C291.325 123.363 291.156 122.652 290.819 122.036C290.482 121.405 290.012 120.921 289.411 120.584C288.81 120.247 288.142 120.078 287.409 120.078C286.661 120.078 285.986 120.247 285.385 120.584C284.798 120.921 284.329 121.405 283.977 122.036C283.64 122.652 283.471 123.363 283.471 124.17C283.471 124.977 283.64 125.695 283.977 126.326C284.329 126.942 284.798 127.426 285.385 127.778C285.986 128.115 286.661 128.284 287.409 128.284ZM308.411 113.676V130H306.387V128.152C305.918 128.797 305.324 129.289 304.605 129.626C303.887 129.963 303.095 130.132 302.229 130.132C301.1 130.132 300.088 129.883 299.193 129.384C298.299 128.885 297.595 128.189 297.081 127.294C296.583 126.385 296.333 125.343 296.333 124.17C296.333 122.997 296.583 121.963 297.081 121.068C297.595 120.173 298.299 119.477 299.193 118.978C300.088 118.479 301.1 118.23 302.229 118.23C303.065 118.23 303.835 118.391 304.539 118.714C305.243 119.022 305.83 119.484 306.299 120.1V113.676H308.411ZM302.405 128.284C303.139 128.284 303.806 128.115 304.407 127.778C305.009 127.426 305.478 126.942 305.815 126.326C306.153 125.695 306.321 124.977 306.321 124.17C306.321 123.363 306.153 122.652 305.815 122.036C305.478 121.405 305.009 120.921 304.407 120.584C303.806 120.247 303.139 120.078 302.405 120.078C301.657 120.078 300.983 120.247 300.381 120.584C299.795 120.921 299.325 121.405 298.973 122.036C298.636 122.652 298.467 123.363 298.467 124.17C298.467 124.977 298.636 125.695 298.973 126.326C299.325 126.942 299.795 127.426 300.381 127.778C300.983 128.115 301.657 128.284 302.405 128.284ZM325.509 130.176C323.969 130.176 322.576 129.839 321.329 129.164C320.097 128.475 319.129 127.536 318.425 126.348C317.721 125.145 317.369 123.796 317.369 122.3C317.369 120.804 317.721 119.462 318.425 118.274C319.129 117.071 320.105 116.133 321.351 115.458C322.598 114.769 323.991 114.424 325.531 114.424C326.734 114.424 327.834 114.629 328.831 115.04C329.829 115.436 330.679 116.03 331.383 116.822L329.953 118.208C328.795 116.991 327.35 116.382 325.619 116.382C324.475 116.382 323.441 116.639 322.517 117.152C321.593 117.665 320.867 118.377 320.339 119.286C319.826 120.181 319.569 121.185 319.569 122.3C319.569 123.415 319.826 124.427 320.339 125.336C320.867 126.231 321.593 126.935 322.517 127.448C323.441 127.961 324.475 128.218 325.619 128.218C327.335 128.218 328.78 127.602 329.953 126.37L331.383 127.756C330.679 128.548 329.821 129.149 328.809 129.56C327.812 129.971 326.712 130.176 325.509 130.176ZM338.714 130.132C337.555 130.132 336.514 129.875 335.59 129.362C334.666 128.849 333.94 128.145 333.412 127.25C332.898 126.341 332.642 125.314 332.642 124.17C332.642 123.026 332.898 122.007 333.412 121.112C333.94 120.203 334.666 119.499 335.59 119C336.514 118.487 337.555 118.23 338.714 118.23C339.872 118.23 340.906 118.487 341.816 119C342.74 119.499 343.458 120.203 343.972 121.112C344.5 122.007 344.764 123.026 344.764 124.17C344.764 125.314 344.5 126.341 343.972 127.25C343.458 128.145 342.74 128.849 341.816 129.362C340.906 129.875 339.872 130.132 338.714 130.132ZM338.714 128.284C339.462 128.284 340.129 128.115 340.716 127.778C341.317 127.426 341.786 126.942 342.124 126.326C342.461 125.695 342.63 124.977 342.63 124.17C342.63 123.363 342.461 122.652 342.124 122.036C341.786 121.405 341.317 120.921 340.716 120.584C340.129 120.247 339.462 120.078 338.714 120.078C337.966 120.078 337.291 120.247 336.69 120.584C336.103 120.921 335.634 121.405 335.282 122.036C334.944 122.652 334.776 123.363 334.776 124.17C334.776 124.977 334.944 125.695 335.282 126.326C335.634 126.942 336.103 127.426 336.69 127.778C337.291 128.115 337.966 128.284 338.714 128.284ZM357.68 118.34L352.576 130H350.42L345.316 118.34H347.516L351.52 127.69L355.612 118.34H357.68ZM364.587 128.284C365.98 128.284 367.102 127.815 367.953 126.876L369.097 128.24C368.584 128.856 367.931 129.325 367.139 129.648C366.362 129.971 365.489 130.132 364.521 130.132C363.289 130.132 362.196 129.883 361.243 129.384C360.29 128.871 359.549 128.159 359.021 127.25C358.508 126.341 358.251 125.314 358.251 124.17C358.251 123.041 358.5 122.021 358.999 121.112C359.512 120.203 360.209 119.499 361.089 119C361.984 118.487 362.988 118.23 364.103 118.23C365.159 118.23 366.12 118.472 366.985 118.956C367.85 119.425 368.54 120.093 369.053 120.958C369.566 121.823 369.83 122.821 369.845 123.95L360.583 125.754C360.876 126.561 361.368 127.184 362.057 127.624C362.761 128.064 363.604 128.284 364.587 128.284ZM364.103 120.012C363.37 120.012 362.71 120.181 362.123 120.518C361.551 120.855 361.104 121.332 360.781 121.948C360.458 122.549 360.297 123.253 360.297 124.06V124.28L367.755 122.872C367.564 122.021 367.139 121.332 366.479 120.804C365.819 120.276 365.027 120.012 364.103 120.012ZM374.824 120.298C375.191 119.623 375.733 119.11 376.452 118.758C377.171 118.406 378.043 118.23 379.07 118.23V120.276C378.953 120.261 378.791 120.254 378.586 120.254C377.442 120.254 376.54 120.599 375.88 121.288C375.235 121.963 374.912 122.931 374.912 124.192V130H372.8V118.34H374.824V120.298ZM394.045 114.6C396.04 114.6 397.609 115.077 398.753 116.03C399.897 116.983 400.469 118.296 400.469 119.968C400.469 121.64 399.897 122.953 398.753 123.906C397.609 124.859 396.04 125.336 394.045 125.336H390.239V130H388.039V114.6H394.045ZM393.979 123.422C395.373 123.422 396.436 123.129 397.169 122.542C397.903 121.941 398.269 121.083 398.269 119.968C398.269 118.853 397.903 118.003 397.169 117.416C396.436 116.815 395.373 116.514 393.979 116.514H390.239V123.422H393.979ZM409.834 118.23C411.316 118.23 412.489 118.663 413.354 119.528C414.234 120.379 414.674 121.633 414.674 123.29V130H412.562V123.532C412.562 122.403 412.291 121.552 411.748 120.98C411.206 120.408 410.428 120.122 409.416 120.122C408.272 120.122 407.37 120.459 406.71 121.134C406.05 121.794 405.72 122.747 405.72 123.994V130H403.608V113.676H405.72V119.99C406.16 119.433 406.732 119 407.436 118.692C408.155 118.384 408.954 118.23 409.834 118.23ZM423.642 130.132C422.483 130.132 421.442 129.875 420.518 129.362C419.594 128.849 418.868 128.145 418.34 127.25C417.826 126.341 417.57 125.314 417.57 124.17C417.57 123.026 417.826 122.007 418.34 121.112C418.868 120.203 419.594 119.499 420.518 119C421.442 118.487 422.483 118.23 423.642 118.23C424.8 118.23 425.834 118.487 426.744 119C427.668 119.499 428.386 120.203 428.9 121.112C429.428 122.007 429.692 123.026 429.692 124.17C429.692 125.314 429.428 126.341 428.9 127.25C428.386 128.145 427.668 128.849 426.744 129.362C425.834 129.875 424.8 130.132 423.642 130.132ZM423.642 128.284C424.39 128.284 425.057 128.115 425.644 127.778C426.245 127.426 426.714 126.942 427.052 126.326C427.389 125.695 427.558 124.977 427.558 124.17C427.558 123.363 427.389 122.652 427.052 122.036C426.714 121.405 426.245 120.921 425.644 120.584C425.057 120.247 424.39 120.078 423.642 120.078C422.894 120.078 422.219 120.247 421.618 120.584C421.031 120.921 420.562 121.405 420.21 122.036C419.872 122.652 419.704 123.363 419.704 124.17C419.704 124.977 419.872 125.695 420.21 126.326C420.562 126.942 421.031 127.426 421.618 127.778C422.219 128.115 422.894 128.284 423.642 128.284ZM438.75 129.318C438.442 129.582 438.061 129.787 437.606 129.934C437.152 130.066 436.682 130.132 436.198 130.132C435.025 130.132 434.116 129.817 433.47 129.186C432.825 128.555 432.502 127.653 432.502 126.48V115.788H434.614V118.34H437.958V120.078H434.614V126.392C434.614 127.023 434.768 127.507 435.076 127.844C435.399 128.181 435.854 128.35 436.44 128.35C437.086 128.35 437.636 128.167 438.09 127.8L438.75 129.318ZM445.899 130.132C444.741 130.132 443.699 129.875 442.775 129.362C441.851 128.849 441.125 128.145 440.597 127.25C440.084 126.341 439.827 125.314 439.827 124.17C439.827 123.026 440.084 122.007 440.597 121.112C441.125 120.203 441.851 119.499 442.775 119C443.699 118.487 444.741 118.23 445.899 118.23C447.058 118.23 448.092 118.487 449.001 119C449.925 119.499 450.644 120.203 451.157 121.112C451.685 122.007 451.949 123.026 451.949 124.17C451.949 125.314 451.685 126.341 451.157 127.25C450.644 128.145 449.925 128.849 449.001 129.362C448.092 129.875 447.058 130.132 445.899 130.132ZM445.899 128.284C446.647 128.284 447.315 128.115 447.901 127.778C448.503 127.426 448.972 126.942 449.309 126.326C449.647 125.695 449.815 124.977 449.815 124.17C449.815 123.363 449.647 122.652 449.309 122.036C448.972 121.405 448.503 120.921 447.901 120.584C447.315 120.247 446.647 120.078 445.899 120.078C445.151 120.078 444.477 120.247 443.875 120.584C443.289 120.921 442.819 121.405 442.467 122.036C442.13 122.652 441.961 123.363 441.961 124.17C441.961 124.977 442.13 125.695 442.467 126.326C442.819 126.942 443.289 127.426 443.875 127.778C444.477 128.115 445.151 128.284 445.899 128.284Z" fill="white"/>
</svg>
