<svg width="36" height="37" viewBox="0 0 36 37" fill="none" xmlns="http://www.w3.org/2000/svg">
<g id="chevron-right">
<path id="Vector" d="M19.7612 18.5005L19.4076 18.8541L13.4801 24.7816C13.4801 24.7816 13.4801 24.7816 13.4801 24.7816C13.2364 25.0254 13.0995 25.356 13.0995 25.7007C13.0995 26.0454 13.2364 26.376 13.4801 26.6198C13.7239 26.8635 14.0545 27.0003 14.3991 27.0003C14.7438 27.0003 15.0744 26.8635 15.3182 26.6198L19.7612 18.5005ZM19.7612 18.5005L19.4076 18.147L13.4834 12.2228C13.2483 11.9779 13.1183 11.6507 13.1213 11.3112C13.1242 10.9703 13.261 10.6443 13.502 10.4032C13.743 10.1622 14.0691 10.0255 14.41 10.0225C14.7495 10.0196 15.0767 10.1496 15.3215 10.3846L22.5183 17.5814C22.5183 17.5814 22.5184 17.5814 22.5184 17.5815C22.7621 17.8253 22.899 18.1558 22.899 18.5005C22.899 18.8452 22.7621 19.1758 22.5184 19.4196C22.5184 19.4196 22.5183 19.4196 22.5183 19.4197L15.3183 26.6197L19.7612 18.5005Z" fill="white" stroke="#B76EF9"/>
</g>
</svg>
