<svg width="32" height="32" viewBox="0 0 32 32" fill="none" xmlns="http://www.w3.org/2000/svg">
<g id="cognition">
<mask id="mask0_15_15846" style="mask-type:alpha" maskUnits="userSpaceOnUse" x="0" y="0" width="32" height="32">
<rect id="Bounding box" width="32" height="32" fill="#D9D9D9"/>
</mask>
<g mask="url(#mask0_15_15846)">
<path id="cognition_2" d="M16.3667 20.7003C17.9222 20.7003 19.2444 20.2003 20.3333 19.2003C21.4222 18.2003 21.9667 16.9892 21.9667 15.567C21.9667 14.3003 21.5611 13.2281 20.75 12.3503C19.9389 11.4725 18.9556 11.0337 17.8 11.0337C16.7556 11.0337 15.8722 11.367 15.15 12.0337C14.4278 12.7003 14.0667 13.5225 14.0667 14.5003C14.0667 14.9225 14.15 15.3337 14.3167 15.7337C14.4833 16.1337 14.7222 16.5003 15.0333 16.8337L16.9333 14.9337C16.8667 14.8892 16.8167 14.8337 16.7833 14.767C16.75 14.7003 16.7333 14.6225 16.7333 14.5337C16.7333 14.2892 16.8333 14.0948 17.0333 13.9503C17.2333 13.8059 17.4889 13.7337 17.8 13.7337C18.2444 13.7337 18.6111 13.917 18.9 14.2837C19.1889 14.6503 19.3333 15.0892 19.3333 15.6003C19.3333 16.2892 19.05 16.8725 18.4833 17.3503C17.9167 17.8281 17.2222 18.067 16.4 18.067C15.3556 18.067 14.4722 17.6448 13.75 16.8003C13.0278 15.9559 12.6667 14.9225 12.6667 13.7003C12.6667 13.0559 12.7889 12.4392 13.0333 11.8503C13.2778 11.2614 13.6222 10.7448 14.0667 10.3003L12.1667 8.40033C11.4556 9.08921 10.9111 9.88921 10.5333 10.8003C10.1556 11.7114 9.96667 12.667 9.96667 13.667C9.96667 15.6225 10.5889 17.2837 11.8333 18.6503C13.0778 20.017 14.5889 20.7003 16.3667 20.7003ZM8 29.3337V23.6003C6.73333 22.4448 5.75 21.0948 5.05 19.5503C4.35 18.0059 4 16.3781 4 14.667C4 11.3337 5.16667 8.50033 7.5 6.16699C9.83333 3.83366 12.6667 2.66699 16 2.66699C18.7778 2.66699 21.2389 3.48366 23.3833 5.11699C25.5278 6.75033 26.9222 8.8781 27.5667 11.5003L29.3 18.3337C29.4111 18.7559 29.3333 19.1392 29.0667 19.4837C28.8 19.8281 28.4444 20.0003 28 20.0003H25.3333V24.0003C25.3333 24.7337 25.0722 25.3614 24.55 25.8837C24.0278 26.4059 23.4 26.667 22.6667 26.667H20V29.3337H17.3333V24.0003H22.6667V17.3337H26.2667L25 12.167C24.4889 10.1448 23.4 8.50033 21.7333 7.23366C20.0667 5.96699 18.1556 5.33366 16 5.33366C13.4222 5.33366 11.2222 6.23366 9.4 8.03366C7.57778 9.83366 6.66667 12.0225 6.66667 14.6003C6.66667 15.9337 6.93889 17.2003 7.48333 18.4003C8.02778 19.6003 8.8 20.667 9.8 21.6003L10.6667 22.4003V29.3337H8Z" fill="white"/>
</g>
</g>
</svg>
