<svg width="1320" height="550" viewBox="0 0 1320 550" fill="none" xmlns="http://www.w3.org/2000/svg">
<rect width="1320" height="550" rx="10" fill="black" fill-opacity="0.3"/>
<path d="M562.29 267.6V283H560.178V280.822C559.137 282.391 557.465 283.176 555.162 283.176C553.329 283.176 551.891 282.619 550.85 281.504C549.823 280.389 549.31 278.798 549.31 276.73V267.6H551.51V276.664C551.51 278.145 551.877 279.275 552.61 280.052C553.343 280.829 554.348 281.218 555.624 281.218C557.003 281.218 558.095 280.807 558.902 279.986C559.709 279.165 560.112 277.947 560.112 276.334V267.6H562.29ZM572.783 271.23C573.912 271.23 574.924 271.479 575.819 271.978C576.713 272.477 577.41 273.173 577.909 274.068C578.422 274.963 578.679 275.997 578.679 277.17C578.679 278.343 578.422 279.385 577.909 280.294C577.41 281.189 576.713 281.885 575.819 282.384C574.924 282.883 573.912 283.132 572.783 283.132C571.947 283.132 571.177 282.971 570.473 282.648C569.783 282.325 569.197 281.856 568.713 281.24V287.268H566.601V271.34H568.625V273.188C569.094 272.543 569.688 272.059 570.407 271.736C571.125 271.399 571.917 271.23 572.783 271.23ZM572.607 281.284C573.355 281.284 574.022 281.115 574.609 280.778C575.21 280.426 575.679 279.942 576.017 279.326C576.369 278.695 576.545 277.977 576.545 277.17C576.545 276.363 576.369 275.652 576.017 275.036C575.679 274.405 575.21 273.921 574.609 273.584C574.022 273.247 573.355 273.078 572.607 273.078C571.873 273.078 571.206 273.254 570.605 273.606C570.018 273.943 569.549 274.42 569.197 275.036C568.859 275.652 568.691 276.363 568.691 277.17C568.691 277.977 568.859 278.695 569.197 279.326C569.534 279.942 570.003 280.426 570.605 280.778C571.206 281.115 571.873 281.284 572.607 281.284ZM585.139 283.132C584.009 283.132 583.137 282.824 582.521 282.208C581.905 281.577 581.597 280.697 581.597 279.568V266.676H583.709V279.392C583.709 280.023 583.855 280.507 584.149 280.844C584.457 281.181 584.911 281.35 585.513 281.35C585.879 281.35 586.224 281.277 586.547 281.13L586.657 282.868C586.173 283.044 585.667 283.132 585.139 283.132ZM593.444 283.132C592.286 283.132 591.244 282.875 590.32 282.362C589.396 281.849 588.67 281.145 588.142 280.25C587.629 279.341 587.372 278.314 587.372 277.17C587.372 276.026 587.629 275.007 588.142 274.112C588.67 273.203 589.396 272.499 590.32 272C591.244 271.487 592.286 271.23 593.444 271.23C594.603 271.23 595.637 271.487 596.546 272C597.47 272.499 598.189 273.203 598.702 274.112C599.23 275.007 599.494 276.026 599.494 277.17C599.494 278.314 599.23 279.341 598.702 280.25C598.189 281.145 597.47 281.849 596.546 282.362C595.637 282.875 594.603 283.132 593.444 283.132ZM593.444 281.284C594.192 281.284 594.86 281.115 595.446 280.778C596.048 280.426 596.517 279.942 596.854 279.326C597.192 278.695 597.36 277.977 597.36 277.17C597.36 276.363 597.192 275.652 596.854 275.036C596.517 274.405 596.048 273.921 595.446 273.584C594.86 273.247 594.192 273.078 593.444 273.078C592.696 273.078 592.022 273.247 591.42 273.584C590.834 273.921 590.364 274.405 590.012 275.036C589.675 275.652 589.506 276.363 589.506 277.17C589.506 277.977 589.675 278.695 590.012 279.326C590.364 279.942 590.834 280.426 591.42 280.778C592.022 281.115 592.696 281.284 593.444 281.284ZM613.415 271.34V283H611.391V281.152C610.922 281.797 610.328 282.289 609.609 282.626C608.89 282.963 608.098 283.132 607.233 283.132C606.104 283.132 605.092 282.883 604.197 282.384C603.302 281.885 602.598 281.189 602.085 280.294C601.586 279.385 601.337 278.343 601.337 277.17C601.337 275.997 601.586 274.963 602.085 274.068C602.598 273.173 603.302 272.477 604.197 271.978C605.092 271.479 606.104 271.23 607.233 271.23C608.069 271.23 608.839 271.391 609.543 271.714C610.247 272.022 610.834 272.484 611.303 273.1V271.34H613.415ZM607.409 281.284C608.142 281.284 608.81 281.115 609.411 280.778C610.012 280.426 610.482 279.942 610.819 279.326C611.156 278.695 611.325 277.977 611.325 277.17C611.325 276.363 611.156 275.652 610.819 275.036C610.482 274.405 610.012 273.921 609.411 273.584C608.81 273.247 608.142 273.078 607.409 273.078C606.661 273.078 605.986 273.247 605.385 273.584C604.798 273.921 604.329 274.405 603.977 275.036C603.64 275.652 603.471 276.363 603.471 277.17C603.471 277.977 603.64 278.695 603.977 279.326C604.329 279.942 604.798 280.426 605.385 280.778C605.986 281.115 606.661 281.284 607.409 281.284ZM628.411 266.676V283H626.387V281.152C625.918 281.797 625.324 282.289 624.605 282.626C623.887 282.963 623.095 283.132 622.229 283.132C621.1 283.132 620.088 282.883 619.193 282.384C618.299 281.885 617.595 281.189 617.081 280.294C616.583 279.385 616.333 278.343 616.333 277.17C616.333 275.997 616.583 274.963 617.081 274.068C617.595 273.173 618.299 272.477 619.193 271.978C620.088 271.479 621.1 271.23 622.229 271.23C623.065 271.23 623.835 271.391 624.539 271.714C625.243 272.022 625.83 272.484 626.299 273.1V266.676H628.411ZM622.405 281.284C623.139 281.284 623.806 281.115 624.407 280.778C625.009 280.426 625.478 279.942 625.815 279.326C626.153 278.695 626.321 277.977 626.321 277.17C626.321 276.363 626.153 275.652 625.815 275.036C625.478 274.405 625.009 273.921 624.407 273.584C623.806 273.247 623.139 273.078 622.405 273.078C621.657 273.078 620.983 273.247 620.381 273.584C619.795 273.921 619.325 274.405 618.973 275.036C618.636 275.652 618.467 276.363 618.467 277.17C618.467 277.977 618.636 278.695 618.973 279.326C619.325 279.942 619.795 280.426 620.381 280.778C620.983 281.115 621.657 281.284 622.405 281.284ZM645.509 283.176C643.969 283.176 642.576 282.839 641.329 282.164C640.097 281.475 639.129 280.536 638.425 279.348C637.721 278.145 637.369 276.796 637.369 275.3C637.369 273.804 637.721 272.462 638.425 271.274C639.129 270.071 640.105 269.133 641.351 268.458C642.598 267.769 643.991 267.424 645.531 267.424C646.734 267.424 647.834 267.629 648.831 268.04C649.829 268.436 650.679 269.03 651.383 269.822L649.953 271.208C648.795 269.991 647.35 269.382 645.619 269.382C644.475 269.382 643.441 269.639 642.517 270.152C641.593 270.665 640.867 271.377 640.339 272.286C639.826 273.181 639.569 274.185 639.569 275.3C639.569 276.415 639.826 277.427 640.339 278.336C640.867 279.231 641.593 279.935 642.517 280.448C643.441 280.961 644.475 281.218 645.619 281.218C647.335 281.218 648.78 280.602 649.953 279.37L651.383 280.756C650.679 281.548 649.821 282.149 648.809 282.56C647.812 282.971 646.712 283.176 645.509 283.176ZM658.714 283.132C657.555 283.132 656.514 282.875 655.59 282.362C654.666 281.849 653.94 281.145 653.412 280.25C652.898 279.341 652.642 278.314 652.642 277.17C652.642 276.026 652.898 275.007 653.412 274.112C653.94 273.203 654.666 272.499 655.59 272C656.514 271.487 657.555 271.23 658.714 271.23C659.872 271.23 660.906 271.487 661.816 272C662.74 272.499 663.458 273.203 663.972 274.112C664.5 275.007 664.764 276.026 664.764 277.17C664.764 278.314 664.5 279.341 663.972 280.25C663.458 281.145 662.74 281.849 661.816 282.362C660.906 282.875 659.872 283.132 658.714 283.132ZM658.714 281.284C659.462 281.284 660.129 281.115 660.716 280.778C661.317 280.426 661.786 279.942 662.124 279.326C662.461 278.695 662.63 277.977 662.63 277.17C662.63 276.363 662.461 275.652 662.124 275.036C661.786 274.405 661.317 273.921 660.716 273.584C660.129 273.247 659.462 273.078 658.714 273.078C657.966 273.078 657.291 273.247 656.69 273.584C656.103 273.921 655.634 274.405 655.282 275.036C654.944 275.652 654.776 276.363 654.776 277.17C654.776 277.977 654.944 278.695 655.282 279.326C655.634 279.942 656.103 280.426 656.69 280.778C657.291 281.115 657.966 281.284 658.714 281.284ZM677.68 271.34L672.576 283H670.42L665.316 271.34H667.516L671.52 280.69L675.612 271.34H677.68ZM684.587 281.284C685.98 281.284 687.102 280.815 687.953 279.876L689.097 281.24C688.584 281.856 687.931 282.325 687.139 282.648C686.362 282.971 685.489 283.132 684.521 283.132C683.289 283.132 682.196 282.883 681.243 282.384C680.29 281.871 679.549 281.159 679.021 280.25C678.508 279.341 678.251 278.314 678.251 277.17C678.251 276.041 678.5 275.021 678.999 274.112C679.512 273.203 680.209 272.499 681.089 272C681.984 271.487 682.988 271.23 684.103 271.23C685.159 271.23 686.12 271.472 686.985 271.956C687.85 272.425 688.54 273.093 689.053 273.958C689.566 274.823 689.83 275.821 689.845 276.95L680.583 278.754C680.876 279.561 681.368 280.184 682.057 280.624C682.761 281.064 683.604 281.284 684.587 281.284ZM684.103 273.012C683.37 273.012 682.71 273.181 682.123 273.518C681.551 273.855 681.104 274.332 680.781 274.948C680.458 275.549 680.297 276.253 680.297 277.06V277.28L687.755 275.872C687.564 275.021 687.139 274.332 686.479 273.804C685.819 273.276 685.027 273.012 684.103 273.012ZM694.824 273.298C695.191 272.623 695.733 272.11 696.452 271.758C697.171 271.406 698.043 271.23 699.07 271.23V273.276C698.953 273.261 698.791 273.254 698.586 273.254C697.442 273.254 696.54 273.599 695.88 274.288C695.235 274.963 694.912 275.931 694.912 277.192V283H692.8V271.34H694.824V273.298ZM714.045 267.6C716.04 267.6 717.609 268.077 718.753 269.03C719.897 269.983 720.469 271.296 720.469 272.968C720.469 274.64 719.897 275.953 718.753 276.906C717.609 277.859 716.04 278.336 714.045 278.336H710.239V283H708.039V267.6H714.045ZM713.979 276.422C715.373 276.422 716.436 276.129 717.169 275.542C717.903 274.941 718.269 274.083 718.269 272.968C718.269 271.853 717.903 271.003 717.169 270.416C716.436 269.815 715.373 269.514 713.979 269.514H710.239V276.422H713.979ZM729.834 271.23C731.316 271.23 732.489 271.663 733.354 272.528C734.234 273.379 734.674 274.633 734.674 276.29V283H732.562V276.532C732.562 275.403 732.291 274.552 731.748 273.98C731.206 273.408 730.428 273.122 729.416 273.122C728.272 273.122 727.37 273.459 726.71 274.134C726.05 274.794 725.72 275.747 725.72 276.994V283H723.608V266.676H725.72V272.99C726.16 272.433 726.732 272 727.436 271.692C728.155 271.384 728.954 271.23 729.834 271.23ZM743.642 283.132C742.483 283.132 741.442 282.875 740.518 282.362C739.594 281.849 738.868 281.145 738.34 280.25C737.826 279.341 737.57 278.314 737.57 277.17C737.57 276.026 737.826 275.007 738.34 274.112C738.868 273.203 739.594 272.499 740.518 272C741.442 271.487 742.483 271.23 743.642 271.23C744.8 271.23 745.834 271.487 746.744 272C747.668 272.499 748.386 273.203 748.9 274.112C749.428 275.007 749.692 276.026 749.692 277.17C749.692 278.314 749.428 279.341 748.9 280.25C748.386 281.145 747.668 281.849 746.744 282.362C745.834 282.875 744.8 283.132 743.642 283.132ZM743.642 281.284C744.39 281.284 745.057 281.115 745.644 280.778C746.245 280.426 746.714 279.942 747.052 279.326C747.389 278.695 747.558 277.977 747.558 277.17C747.558 276.363 747.389 275.652 747.052 275.036C746.714 274.405 746.245 273.921 745.644 273.584C745.057 273.247 744.39 273.078 743.642 273.078C742.894 273.078 742.219 273.247 741.618 273.584C741.031 273.921 740.562 274.405 740.21 275.036C739.872 275.652 739.704 276.363 739.704 277.17C739.704 277.977 739.872 278.695 740.21 279.326C740.562 279.942 741.031 280.426 741.618 280.778C742.219 281.115 742.894 281.284 743.642 281.284ZM758.75 282.318C758.442 282.582 758.061 282.787 757.606 282.934C757.152 283.066 756.682 283.132 756.198 283.132C755.025 283.132 754.116 282.817 753.47 282.186C752.825 281.555 752.502 280.653 752.502 279.48V268.788H754.614V271.34H757.958V273.078H754.614V279.392C754.614 280.023 754.768 280.507 755.076 280.844C755.399 281.181 755.854 281.35 756.44 281.35C757.086 281.35 757.636 281.167 758.09 280.8L758.75 282.318ZM765.899 283.132C764.741 283.132 763.699 282.875 762.775 282.362C761.851 281.849 761.125 281.145 760.597 280.25C760.084 279.341 759.827 278.314 759.827 277.17C759.827 276.026 760.084 275.007 760.597 274.112C761.125 273.203 761.851 272.499 762.775 272C763.699 271.487 764.741 271.23 765.899 271.23C767.058 271.23 768.092 271.487 769.001 272C769.925 272.499 770.644 273.203 771.157 274.112C771.685 275.007 771.949 276.026 771.949 277.17C771.949 278.314 771.685 279.341 771.157 280.25C770.644 281.145 769.925 281.849 769.001 282.362C768.092 282.875 767.058 283.132 765.899 283.132ZM765.899 281.284C766.647 281.284 767.315 281.115 767.901 280.778C768.503 280.426 768.972 279.942 769.309 279.326C769.647 278.695 769.815 277.977 769.815 277.17C769.815 276.363 769.647 275.652 769.309 275.036C768.972 274.405 768.503 273.921 767.901 273.584C767.315 273.247 766.647 273.078 765.899 273.078C765.151 273.078 764.477 273.247 763.875 273.584C763.289 273.921 762.819 274.405 762.467 275.036C762.13 275.652 761.961 276.363 761.961 277.17C761.961 277.977 762.13 278.695 762.467 279.326C762.819 279.942 763.289 280.426 763.875 280.778C764.477 281.115 765.151 281.284 765.899 281.284Z" fill="white"/>
</svg>
