<svg width="32" height="32" viewBox="0 0 32 32" fill="none" xmlns="http://www.w3.org/2000/svg">
<g clip-path="url(#clip0_74_10567)">
<path d="M30.4919 9.69826C30.4919 11.2336 30.4919 12.7444 30.4919 14.2552C30.1947 14.2972 29.8974 14.3181 29.6141 14.3846C28.3236 14.6819 27.3619 15.8674 27.3269 17.1929C27.3129 17.7315 27.2919 18.2736 27.4528 18.8016C27.8445 20.0712 28.9916 20.935 30.3241 20.949C30.3765 20.949 30.4255 20.9525 30.4884 20.956C30.4884 23.3656 30.4884 25.7647 30.4884 28.1883C25.4873 27.975 20.794 29.0661 16.3909 31.4757C16.3874 31.3988 16.3805 31.3359 16.3805 31.2764C16.3805 24.9883 16.3805 18.7002 16.377 12.4121C16.377 12.2513 16.4259 12.1848 16.5728 12.1289C18.8985 11.244 21.2836 10.5936 23.7387 10.1879C25.921 9.82766 28.1138 9.65629 30.3241 9.69476C30.3765 9.68776 30.4255 9.69126 30.4919 9.69826Z" fill="white"/>
<path d="M1.50977 28.1846C1.50977 25.7575 1.50977 23.3618 1.50977 20.9907C1.85949 20.9312 2.20222 20.9032 2.52747 20.8088C3.79348 20.4416 4.6608 19.277 4.67479 17.962C4.67829 17.4934 4.69927 17.0213 4.58037 16.5561C4.26212 15.3251 3.20944 14.4193 1.94343 14.3074C1.80354 14.2934 1.66714 14.2864 1.51326 14.2759C1.51326 12.7511 1.51326 11.2298 1.51326 9.68401C1.87698 9.68401 2.2372 9.67002 2.59742 9.68751C3.75851 9.74696 4.9266 9.77494 6.08069 9.89035C9.22824 10.2086 12.2814 10.943 15.2435 12.0587C15.6177 12.202 15.6177 12.202 15.6177 12.5972C15.6177 18.7944 15.6177 24.9881 15.6177 31.1852C15.6177 31.2726 15.6177 31.3601 15.6177 31.479C11.2147 29.0624 6.51785 27.9677 1.50977 28.1846Z" fill="white"/>
<path d="M15.99 0.52832C18.9836 0.56679 21.4982 2.67914 22.0123 5.63783C22.2711 7.11717 21.9983 8.50559 21.2359 9.79608C21.1939 9.86952 21.0995 9.93947 21.0155 9.95695C19.3438 10.3626 17.7071 10.8732 16.1019 11.4958C16.0389 11.5202 15.9515 11.5167 15.8885 11.4923C14.2903 10.8732 12.6571 10.3591 10.9889 9.96395C10.8805 9.93947 10.8105 9.88701 10.7511 9.78909C8.62472 6.26734 10.6217 1.60548 14.647 0.72067C15.0877 0.622747 15.5423 0.591271 15.99 0.52832Z" fill="white"/>
<path d="M0.0314958 17.609C0.0314958 17.1684 -0.00697414 16.7207 0.0419876 16.2871C0.11543 15.5981 0.75543 15.0595 1.45139 15.0421C2.57051 15.0141 3.43783 15.5527 3.78057 16.5144C3.85751 16.7312 3.91346 16.9656 3.91346 17.1929C3.91346 17.644 3.93794 18.1127 3.82953 18.5428C3.55674 19.634 2.47259 20.3964 1.1821 20.1481C0.489638 20.0152 0.0175067 19.4031 0.00701493 18.6932C2.03968e-05 18.333 0.00701493 17.9728 0.00701493 17.609C0.0105122 17.609 0.021004 17.609 0.0314958 17.609Z" fill="white"/>
<path d="M31.9725 17.6194C31.9725 18.0565 32.011 18.4972 31.962 18.9274C31.8816 19.6338 31.2836 20.1479 30.5701 20.1864C29.3811 20.2528 28.3913 19.5814 28.15 18.4657C28.0031 17.7838 27.9786 17.0738 28.2619 16.4058C28.6746 15.4301 29.6853 14.867 30.8009 15.0769C31.4934 15.2063 31.9795 15.8113 31.9935 16.5178C32.0005 16.885 31.9935 17.2522 31.9935 17.6194C31.99 17.6194 31.9795 17.6194 31.9725 17.6194Z" fill="white"/>
</g>
<defs>
<clipPath id="clip0_74_10567">
<rect width="32" height="30.9438" fill="white" transform="translate(0 0.52832)"/>
</clipPath>
</defs>
</svg>
