<svg width="214" height="73" viewBox="0 0 214 73" fill="none" xmlns="http://www.w3.org/2000/svg">
<g id="g12">
<path id="path14" d="M17.0312 18.6876C7.62509 18.6876 0 26.3127 0 35.7186V38.7291C0 48.1356 7.62509 55.7607 17.0312 55.7607H196.322C205.728 55.7607 213.353 48.1356 213.353 38.7291V35.7186C213.353 26.3127 205.728 18.6876 196.322 18.6876H17.0312Z" fill="white"/>
<path id="path16" d="M100.027 65.5439C116.095 65.5439 129.121 52.5182 129.121 36.4489C129.121 20.3802 116.095 7.35458 100.027 7.35458C83.9579 7.35458 70.9316 20.3802 70.9316 36.4489C70.9316 52.5182 83.9579 65.5439 100.027 65.5439Z" fill="#9460B7"/>
<path id="path18" d="M131.58 22.2068C125.923 9.84574 113.493 1.86036 99.9125 1.86036C86.333 1.86036 73.9025 9.84574 68.2452 22.2068L67.3633 24.1328H69.4819H71.5945H72.4313L72.8084 23.3857C78.0168 13.0781 88.4162 6.67379 99.9484 6.67379C111.48 6.67379 121.88 13.0781 127.088 23.3857L127.465 24.1328H128.302H130.344H132.462L131.58 22.2068Z" fill="#5E3A9E"/>
<path id="path20 (Stroke)" fill-rule="evenodd" clip-rule="evenodd" d="M65.2441 25.4932H73.2682L74.0221 23.9993C74.0222 23.9991 74.0223 23.999 74.0224 23.9988C79 14.1485 88.9304 8.03414 99.9482 8.03414C110.965 8.03414 120.896 14.1485 125.873 23.9988C125.874 23.999 125.874 23.9991 125.874 23.9993L126.628 25.4932H134.581L132.817 21.6409C132.817 21.6408 132.817 21.641 132.817 21.6409C126.938 8.79669 114.025 0.500341 99.9123 0.500341C85.8001 0.500341 72.8868 8.79644 67.0083 21.6407C67.0082 21.6408 67.0083 21.6406 67.0083 21.6407L65.2441 25.4932ZM69.4819 22.7728C74.918 10.8951 86.8655 3.22071 99.9123 3.22071C112.96 3.22071 124.906 10.8951 130.343 22.7728H128.302C122.862 12.0081 111.994 5.31377 99.9482 5.31377C87.9018 5.31377 77.0335 12.0078 71.5941 22.7725L69.4819 22.7728Z" fill="white"/>
<path id="path22" d="M131.58 50.7931C125.923 63.1543 113.493 71.1396 99.9125 71.1396C86.333 71.1396 73.9025 63.1543 68.2452 50.7931L67.3633 48.8672H69.4819H71.5945H72.4313L72.8084 49.6143C78.0168 59.922 88.4162 66.3263 99.9484 66.3263C111.48 66.3263 121.88 59.922 127.088 49.6143L127.465 48.8672H128.302H130.344H132.462L131.58 50.7931Z" fill="#5E3A9E"/>
<path id="path24 (Stroke)" fill-rule="evenodd" clip-rule="evenodd" d="M67.0083 51.3596C72.8868 64.2039 85.8001 72.5 99.9123 72.5C114.025 72.5 126.938 64.2038 132.817 51.3594L134.581 47.5072H126.628L125.874 49.001C120.896 58.8516 110.966 64.9663 99.9482 64.9663C88.9302 64.9663 78.9996 58.8516 74.0221 49.001L73.2682 47.5072H65.2441L67.0083 51.3596C67.0083 51.3597 67.0083 51.3595 67.0083 51.3596ZM69.4819 50.2276H71.594C77.0334 60.9924 87.9018 67.6867 99.9482 67.6867C111.994 67.6867 122.862 60.9926 128.302 50.2278L130.343 50.2276C124.906 62.1053 112.96 69.7796 99.9123 69.7796C86.8656 69.7796 74.9181 62.1053 69.4819 50.2276Z" fill="white"/>
<path id="path26" d="M91.7219 41.535C90.9336 42.2157 89.9803 42.5562 88.8623 42.5562C87.6522 42.5562 86.6669 42.0687 85.9063 41.0928C85.1457 40.1172 84.7654 38.6531 84.7654 36.7008C84.7654 34.7494 85.1821 33.2288 86.0162 32.1393C86.8503 31.0501 87.9912 30.5056 89.4395 30.5056C91.1077 30.5056 92.5467 31.3793 93.7568 33.127L97.9086 28.5992C96.9189 27.1013 95.6768 25.9609 94.1828 25.1779C92.6887 24.3949 90.9978 24.0033 89.1098 24.0033C87.0015 24.0033 85.1228 24.5372 83.4727 25.6034C81.823 26.6703 80.5352 28.1738 79.6097 30.1139C78.6837 32.0545 78.2207 34.2727 78.2207 36.7688C78.2207 39.3113 78.6516 41.4959 79.5134 43.3224C80.3747 45.1493 81.5434 46.5394 83.0189 47.4922C84.4944 48.4454 86.1403 48.9219 87.9547 48.9219C90.1174 48.9219 91.8411 48.2526 93.124 46.9137V48.3774H97.3585V35.8163H91.7219V41.535Z" fill="white"/>
<path id="path28" d="M110.994 48.9219C113.065 48.9219 114.926 48.3882 116.576 47.3218C118.226 46.2553 119.518 44.7744 120.453 42.8794C121.388 40.985 121.856 38.8457 121.856 36.4626C121.856 34.0795 121.388 31.9408 120.453 30.0457C119.518 28.1512 118.226 26.6703 116.576 25.6034C114.926 24.5369 113.065 24.0033 110.994 24.0033C108.922 24.0033 107.062 24.5369 105.413 25.6034C103.762 26.6703 102.47 28.1512 101.535 30.0457C100.6 31.9408 100.133 34.0795 100.133 36.4626C100.133 38.8457 100.6 40.985 101.535 42.8794C102.47 44.7744 103.762 46.2553 105.413 47.3218C107.062 48.3882 108.922 48.9219 110.994 48.9219ZM110.994 42.4195C110.187 42.4195 109.459 42.1764 108.808 41.6878C108.157 41.2003 107.639 40.5083 107.255 39.6116C106.87 38.715 106.677 37.6655 106.677 36.4626C106.677 35.2601 106.87 34.2106 107.255 33.3135C107.639 32.4173 108.157 31.7253 108.808 31.2373C109.459 30.7491 110.187 30.5056 110.994 30.5056C111.8 30.5056 112.529 30.7491 113.18 31.2373C113.83 31.7253 114.349 32.4173 114.734 33.3135C115.119 34.2106 115.311 35.2601 115.311 36.4626C115.311 37.6655 115.119 38.715 114.734 39.6116C114.349 40.5083 113.83 41.2003 113.18 41.6878C112.529 42.1764 111.8 42.4195 110.994 42.4195Z" fill="white"/>
<path id="path30" d="M142.424 43.9043H146.358L144.064 39.2465C144.729 38.7719 145.239 38.1326 145.593 37.3276C145.947 36.5224 146.124 35.5804 146.124 34.5023C146.124 33.3525 145.922 32.3459 145.515 31.4837C145.109 30.6208 144.532 29.9597 143.782 29.4993C143.033 29.0396 142.153 28.8094 141.144 28.8094H135.883V43.9043H139.567V40.1088H140.566L142.424 43.9043ZM142.408 34.5023C142.408 35.0631 142.284 35.4977 142.034 35.8067C141.784 36.1164 141.41 36.2705 140.91 36.2705H139.567V32.734H140.91C141.41 32.734 141.784 32.8889 142.034 33.1979C142.284 33.507 142.408 33.9418 142.408 34.5023ZM155.07 32.6479V28.8094H148.107V32.6479H149.746V40.0659H148.107V43.9043H155.07V40.0659H153.43V32.6479H155.07ZM167.513 30.4699C166.732 29.8232 165.858 29.327 164.89 28.982C163.922 28.6371 162.922 28.4645 161.892 28.4645C160.862 28.4645 159.862 28.6371 158.894 28.982C157.927 29.327 157.052 29.8232 156.272 30.4699L157.49 34.0925C158.332 33.4456 159.186 33.0005 160.05 32.7557V43.9043H163.735V32.7557C164.598 33.0005 165.452 33.4456 166.294 34.0925L167.513 30.4699ZM176.145 28.8094V34.1573H172.742V28.8094H169.058V43.9043H172.742V38.3405H176.145V43.9043H179.83V28.8094H176.145ZM195.644 28.4645C194.926 28.4645 194.273 28.6337 193.685 28.9712C193.097 29.3089 192.611 29.816 192.226 30.4912C191.549 29.1403 190.513 28.4645 189.119 28.4645C187.786 28.4645 186.782 29.0825 186.106 30.3188V28.8094H182.546V43.9043H186.231V35.0631C186.231 34.2579 186.366 33.6436 186.637 33.2192C186.907 32.7954 187.277 32.5831 187.745 32.5831C188.203 32.5831 188.559 32.7812 188.814 33.1763C189.069 33.5718 189.197 34.1431 189.197 34.8905V43.9043H192.881V35.0631C192.881 34.2579 193.03 33.6436 193.326 33.2192C193.623 32.7954 194.021 32.5831 194.52 32.5831C195.01 32.5831 195.395 32.7812 195.676 33.1763C195.957 33.5718 196.097 34.1431 196.097 34.8905V43.9043H199.782V34.7394C199.782 32.7127 199.417 31.1598 198.689 30.0817C197.96 29.0037 196.945 28.4645 195.644 28.4645Z" fill="#5E3A9E"/>
<path id="path32" d="M28.1644 28.8092V37.3916C28.1644 38.312 28.0346 38.9981 27.7744 39.4514C27.5139 39.9041 27.1079 40.1304 26.5562 40.1304C26.0045 40.1304 25.5964 39.9041 25.331 39.4514C25.0655 38.9981 24.9327 38.312 24.9327 37.3916V28.8092H21.2483V37.3916C21.2483 38.312 21.1182 38.9981 20.8581 39.4514C20.5979 39.9041 20.1922 40.1304 19.6405 40.1304C19.0888 40.1304 18.6828 39.9041 18.4229 39.4514C18.1622 38.9981 18.0321 38.312 18.0321 37.3916V28.8092H14.3477V37.5427C14.3477 39.6848 14.8189 41.3382 15.7606 42.5025C16.7025 43.6669 18.017 44.249 19.703 44.249C21.1078 44.249 22.2374 43.7746 23.0905 42.8257C23.9544 43.7746 25.0834 44.249 26.4784 44.249C28.1748 44.249 29.4942 43.6669 30.4359 42.5025C31.3778 41.3382 31.849 39.6848 31.849 37.5427V28.8092H28.1644ZM43.261 39.2244C42.7822 39.5693 42.2332 39.8469 41.6141 40.0548C40.9948 40.2637 40.4095 40.3676 39.8578 40.3676C38.4213 40.3676 37.7031 39.9797 37.7031 39.2032C37.7031 38.8725 37.8049 38.6172 38.0079 38.4379C38.2109 38.2583 38.515 38.168 38.9209 38.168H42.3714V34.416H39.1707C38.8066 34.416 38.5465 34.3371 38.3905 34.1787C38.2343 34.0204 38.1558 33.7909 38.1558 33.4889C38.1558 33.1293 38.3148 32.849 38.6319 32.6477C38.9496 32.4464 39.4306 32.3457 40.0764 32.3457C41.0651 32.3457 42.0487 32.6188 43.027 33.1652L44.0259 29.4562C43.464 29.1542 42.8261 28.9138 42.1135 28.7335C41.4007 28.5542 40.6743 28.4643 39.9355 28.4643C38.7282 28.4643 37.7108 28.6798 36.8838 29.1112C36.0562 29.5426 35.442 30.1139 35.0416 30.8257C34.6406 31.5373 34.4404 32.317 34.4404 33.1652C34.4404 33.7837 34.5471 34.348 34.7602 34.8578C34.9736 35.3687 35.2886 35.7816 35.7047 36.0977C35.1532 36.429 34.7292 36.896 34.4328 37.4997C34.1356 38.1031 33.9877 38.7866 33.9877 39.5483C33.9877 40.4684 34.2064 41.2838 34.6434 41.9954C35.0803 42.7071 35.7281 43.261 36.5867 43.6561C37.4457 44.0516 38.4888 44.249 39.7172 44.249C40.5704 44.249 41.4084 44.1304 42.2304 43.8933C43.0525 43.6561 43.7555 43.329 44.3381 42.9122L43.261 39.2244ZM46.2583 43.9041H54.8762V39.9579H49.9427V28.8092H46.2583V43.9041ZM56.8273 43.9041H65.4454V39.9579H60.5118V28.8092H56.8273V43.9041Z" fill="#5E3A9E"/>
</g>
</svg>
