<svg width="94" height="72" viewBox="0 0 94 72" fill="none" xmlns="http://www.w3.org/2000/svg">
<path d="M66.9398 51.4139C67.6287 53.0093 67.7919 54.641 67.4474 56.3089C67.4112 56.4902 67.5925 56.8346 67.7737 56.9253C71.3996 58.9558 75.0255 60.9863 78.6877 62.9624C78.9052 63.0712 79.3947 62.8899 79.6485 62.6904C82.4405 60.5149 86.6284 61.7115 87.6255 65.0291C88.2419 67.0415 87.4805 69.3621 85.8307 70.6312C84.2172 71.864 81.8603 71.9727 80.138 70.885C78.4157 69.8153 77.5455 67.6579 77.9625 65.5186C77.9806 65.4099 77.9988 65.283 78.035 65.0835C74.2822 62.9443 70.5113 60.805 66.9398 58.7564C65.707 59.7172 64.5648 60.6056 63.4227 61.512C63.2958 61.6027 63.2233 61.784 63.1689 61.9471C62.0992 66.0807 59.5248 67.531 55.5182 66.2076C55.4095 66.3707 55.3007 66.5339 55.1919 66.7152C54.1585 68.2743 52.4543 68.9089 50.7139 68.4012C49.0098 67.8936 47.8495 66.3707 47.8313 64.5397C47.8132 60.1886 47.8313 55.8556 47.8313 51.5046C47.8313 43.3826 47.8313 35.2787 47.8313 27.1567C47.8313 26.7578 47.8313 26.3771 47.8313 25.9058C47.3237 25.9058 46.7798 25.9058 46.2178 25.9058C46.2178 31.0545 46.2178 36.1852 46.2178 41.3339C46.2178 48.9664 46.2178 56.5989 46.2178 64.2315C46.2178 66.7514 44.2054 68.6007 41.758 68.365C40.2532 68.2199 39.238 67.3135 38.6578 66.2438C37.2437 66.2982 35.9384 66.5339 34.7056 66.3526C32.7839 66.0625 31.2066 64.2496 30.9709 62.3097C30.8984 61.6752 30.5902 61.3489 30.0826 61.0044C29.2124 60.4243 28.4509 59.6991 27.5626 58.9558C27.4719 59.0102 27.2544 59.1008 27.055 59.2096C23.701 61.1132 20.3652 63.0349 16.9931 64.9204C16.4673 65.2104 16.2861 65.4643 16.4311 66.1169C16.9206 68.4737 15.6334 70.7399 13.3853 71.6464C11.1735 72.5347 8.58103 71.7008 7.25758 69.6884C5.98852 67.7667 6.2242 65.1198 7.80146 63.5063C9.46937 61.8021 12.2251 61.4214 14.1649 62.908C15.1802 63.6694 15.8147 63.4881 16.7393 62.9443C19.8213 61.1132 22.9396 59.3546 26.0578 57.5598C26.3117 57.4148 26.5655 57.2516 26.8374 57.0884C26.2935 55.1123 26.2573 53.1906 27.0368 51.4683C26.1485 50.5618 25.0607 49.8548 24.535 48.8395C23.9367 47.6611 23.2115 47.498 22.0694 47.5161C18.3891 47.5886 14.7088 47.5342 11.0466 47.5342C10.1402 50.6706 7.20319 51.7946 4.88262 51.3233C2.54392 50.9063 0.930394 48.9121 0.912264 46.5008C0.894135 44.144 2.4714 42.1316 4.71945 41.6421C7.34823 41.062 9.34247 42.2948 10.811 45.3949C14.9626 45.3949 19.1143 45.3949 23.2659 45.3949C23.8642 42.9837 24.118 42.5667 26.1304 40.7901C25.9309 40.1736 25.6227 39.5572 25.5683 38.9227C25.4777 37.9437 25.4414 36.9285 25.6227 35.9857C25.7315 35.3693 25.6046 35.1518 25.097 34.8798C22.015 33.1757 18.933 31.4534 15.8691 29.7129C15.2708 29.3685 14.8538 29.2778 14.2193 29.7855C12.4426 31.1814 10.0314 31.1633 8.23657 29.9124C6.5324 28.734 5.77096 26.6853 6.27859 24.7636C7.00377 22.026 9.57815 20.3763 12.2794 20.9201C14.7813 21.4096 16.5399 24.0203 16.1229 26.7397C16.0504 27.1929 16.0866 27.4286 16.5217 27.6643C20.0207 29.6042 23.5197 31.5621 26.9462 33.4657C27.8345 32.8131 28.6141 32.0879 29.5387 31.6347C30.427 31.1996 31.4785 31.0727 32.5663 30.7645C32.7657 30.2024 32.947 29.441 33.3278 28.7883C33.7085 28.1357 34.3067 27.5918 34.8506 26.921C34.5606 26.4315 34.2342 25.8695 33.8898 25.3075C32.0587 22.2617 30.2276 19.216 28.4147 16.1521C28.1609 15.717 27.907 15.5176 27.345 15.6263C24.7706 16.0977 22.577 14.8468 21.7249 12.4899C20.8547 10.115 21.7612 7.59499 23.9004 6.39845C25.9309 5.25629 28.7591 5.76391 30.2457 7.5406C31.9137 9.53484 31.9318 12.073 30.2639 14.0672C30.1732 14.176 30.0644 14.2848 29.9013 14.4842C30.0463 14.738 30.2095 15.0281 30.3727 15.3C32.3669 18.5996 34.3974 21.881 36.3191 25.235C36.8811 26.214 37.5338 26.7035 38.6397 26.5222C39.4011 23.005 43.7885 21.7722 46.2722 25.1806C46.2722 20.1768 46.2722 15.155 46.2722 10.0969C45.8371 9.93369 45.4745 9.78866 45.13 9.64362C42.7913 8.61024 41.6129 5.92708 42.3925 3.44334C43.1358 1.10464 45.547 -0.345718 48.0126 0.0712598C50.4964 0.506367 52.3456 2.73629 52.1461 5.22003C51.983 7.34118 50.859 8.79154 48.9191 9.64362C48.6472 9.77053 48.2846 10.0787 48.2846 10.3144C48.2483 15.2638 48.2664 20.195 48.3752 25.2168C49.5174 23.694 50.8952 22.7875 52.7988 23.0776C54.7205 23.3676 55.8083 24.5642 56.2434 26.3771C57.0955 26.5222 57.5306 26.1596 57.9113 25.4525C60.0143 21.6635 62.1536 17.8925 64.311 14.0672C62.8788 12.5443 62.2805 10.8039 62.9151 8.75528C63.6946 6.23528 66.2509 4.7124 68.6258 5.32881C71.4178 6.05398 73.0313 8.39269 72.5781 11.0396C72.1248 13.6865 69.623 15.5357 66.8854 15.1731C66.2146 15.0825 65.9245 15.2456 65.6163 15.7895C63.5858 19.4154 61.5191 23.0232 59.5067 26.5947C60.105 27.2111 60.7758 27.755 61.2109 28.4258C61.646 29.0965 61.8273 29.9124 62.1174 30.6557C63.0057 30.8914 64.0028 31.0183 64.8912 31.4171C65.7614 31.7978 66.5047 32.4505 67.393 33.0306C70.7107 31.0001 74.1553 28.8971 77.5818 26.7941C77.5274 26.359 77.4911 25.9783 77.4368 25.5976C76.9835 21.1377 81.8422 19.1616 84.5979 20.5938C86.4652 21.5547 87.408 23.0957 87.4623 25.1624C87.5167 27.2836 86.4652 28.7883 84.6342 29.7311C82.8212 30.6557 81.0445 30.4381 79.4491 29.2234C78.9052 28.8065 78.5427 28.7883 77.9806 29.1328C74.7717 31.1089 71.5447 33.0306 68.2632 35.0067C69.0972 37.001 68.9522 38.959 67.9732 40.9351C69.3691 41.8778 70.33 43.1469 70.7107 44.8329C74.9349 44.8329 79.1228 44.8329 83.3832 44.8329C83.4739 44.561 83.5645 44.2346 83.6914 43.9446C84.5072 42.1135 85.8851 41.0257 87.8975 40.8444C89.7104 40.6813 91.2333 41.2977 92.3029 42.8205C93.8802 45.0686 92.9737 48.8758 90.5444 50.2718C88.0062 51.7402 84.7429 50.7431 83.5283 48.0056C83.1838 47.226 82.8031 47.0266 82.0054 47.0447C78.4701 47.081 74.953 47.081 71.4178 47.0447C70.747 47.0447 70.3663 47.1354 70.1668 47.9149C69.7861 49.329 68.8796 50.2355 66.9398 51.4139ZM32.0043 49.1477C29.3393 50.4893 28.0158 52.5742 28.5053 55.4387C29.0129 58.5025 31.0978 60.0617 34.1617 60.388C34.1617 61.0769 34.1617 61.7296 34.1617 62.4185C33.8535 62.4366 33.5997 62.4548 33.3278 62.4729C33.6178 63.7601 34.6149 64.594 36.0472 64.7209C37.4431 64.8479 38.4403 64.0683 39.3467 62.0922C39.6549 62.1284 39.9813 62.1828 40.3076 62.2191C40.6521 62.2735 40.9965 62.3097 41.5041 62.3822C41.1959 63.0712 40.9965 63.6876 40.6702 64.1952C40.3257 64.7572 40.4164 65.2286 40.7427 65.6999C41.2141 66.3707 41.8667 66.6971 42.7007 66.4976C43.5709 66.2982 44.1511 65.5912 44.1692 64.6666C44.1873 62.7086 44.2961 60.7325 44.1329 58.7926C43.9879 57.0703 43.1539 55.6381 41.4316 54.9129C41.0328 54.7497 40.5795 54.6954 40.1807 54.5866C40.1807 53.8614 40.1807 53.2087 40.1807 52.266C41.6129 52.8643 42.882 53.3719 44.1148 53.8795C44.1148 50.3624 44.1148 46.7546 44.1148 43.1469C42.4469 43.0018 41.8486 43.4188 40.7427 45.5037C40.1263 45.3224 39.5099 45.1593 38.8935 44.978C39.1292 42.6574 40.8152 41.3339 44.1148 40.7901C44.1148 38.2519 44.1148 35.6957 44.1148 32.9037C43.4803 33.3026 42.9726 33.6289 42.3744 33.9915C41.903 33.7377 41.3229 33.4295 40.7065 33.085C41.4498 31.8704 42.4831 31.2177 43.8428 31.0364C43.8428 29.6223 43.8972 28.2807 43.8247 26.921C43.7703 25.8151 42.7007 25.0899 41.6311 25.3075C40.5977 25.5069 39.9088 26.6128 40.1988 27.6462C40.2713 27.9181 40.4345 28.1719 40.5795 28.4801C40.0538 28.879 39.528 29.2597 38.9841 29.6586C38.1321 28.5889 37.0806 28.3351 35.884 28.7521C34.7237 29.1691 34.3974 30.1481 34.343 31.2721C34.2886 32.2873 33.1827 33.1938 32.1675 33.1213C29.9919 32.94 28.2152 34.0459 27.5445 35.9676C26.8193 38.0344 27.4719 40.0467 29.2849 41.2977C29.448 41.4064 29.6293 41.5334 29.8288 41.6784C29.5387 42.2767 29.2486 42.8568 28.9404 43.4913C28.324 43.1287 27.8164 42.8206 27.3269 42.5305C24.7706 44.1259 24.7163 47.5886 27.1819 48.9664C27.6532 49.2384 27.9796 49.2384 28.4509 48.8214C29.2486 48.1144 30.1551 47.5342 31.0978 46.8453C31.4423 47.7518 31.7142 48.4226 32.0043 49.1477ZM53.9772 54.6047C53.7597 54.6772 53.5602 54.7316 53.3608 54.786C51.6748 55.2211 50.0975 56.9072 50.0069 58.6476C49.8981 60.6962 49.9525 62.7448 49.9887 64.7935C50.0069 65.6818 50.7139 66.3889 51.566 66.5339C52.3274 66.6608 52.9257 66.3526 53.3789 65.7543C53.7778 65.2104 53.7959 64.7028 53.3789 64.1227C53.0526 63.6513 52.9257 63.053 52.6538 62.4004C53.4877 62.2916 54.1585 62.201 54.8112 62.1103C55.2825 63.7782 56.5516 64.7935 58.002 64.7391C59.126 64.6847 60.7395 63.742 60.8483 62.3822C60.5764 62.3641 60.2863 62.346 59.9781 62.3279C59.9781 61.6208 59.9781 60.9682 59.9781 60.2792C62.8788 59.971 64.9274 58.5751 65.562 55.6743C66.2327 52.6105 64.8005 50.4531 62.1355 49.0027C62.3893 48.3319 62.6068 47.7155 62.9151 46.8634C63.8578 47.5705 64.7461 48.1144 65.4894 48.8395C65.9971 49.329 66.3778 49.329 66.9035 49.0027C67.8463 48.4044 68.4808 47.5886 68.4083 46.4102C68.3176 44.8148 67.9913 43.3463 66.3778 42.6211C65.8339 42.9475 65.3263 43.2557 64.728 43.6001C64.4198 42.9293 64.1479 42.3492 63.8759 41.769C66.124 40.1736 66.8673 38.4332 66.2509 36.3483C65.7251 34.5535 63.8034 32.9581 61.4466 33.1394C60.6126 33.2119 59.5792 32.106 59.5067 31.2539C59.3979 29.7492 58.7997 28.8971 57.7119 28.6252C56.5697 28.3351 55.5726 28.607 54.8293 29.6042C54.2673 29.1872 53.7415 28.7883 53.1977 28.3714C53.3064 28.1901 53.3789 28.045 53.4696 27.8819C53.8684 27.1567 53.7597 26.4678 53.252 25.8695C52.7626 25.2894 52.128 25.0355 51.3847 25.235C50.6233 25.4344 50.0431 25.9601 49.9887 26.7397C49.8981 28.1719 49.9706 29.6223 49.9706 31.0364C51.983 31.4171 52.6175 31.816 53.3608 33.1575C52.8169 33.4476 52.2912 33.8646 51.6929 33.9915C51.421 34.064 51.0402 33.5745 50.6777 33.3751C50.4782 33.2663 50.2426 33.2301 49.9887 33.1394C49.9887 35.7863 49.9887 38.3426 49.9887 40.917C52.7444 41.062 54.7205 42.3492 55.1738 45.0505C54.5574 45.2136 53.941 45.3949 53.3246 45.5581C52.69 43.7452 51.6385 43.0381 49.9887 43.2194C49.9887 46.8453 49.9887 50.4531 49.9887 54.1152C51.9105 52.7918 52.7263 52.4836 53.9228 52.6649C53.9772 53.2813 53.9772 53.9339 53.9772 54.6047ZM82.7306 28.0813C84.2897 28.0813 85.5769 26.7941 85.5769 25.1987C85.5769 23.6214 84.2353 22.2799 82.6218 22.2799C81.0264 22.2799 79.7573 23.5852 79.7392 25.2712C79.7211 26.9029 80.972 28.0813 82.7306 28.0813ZM23.1753 10.5864C23.1753 12.3268 24.3899 13.4871 26.1666 13.4689C27.7257 13.4508 28.9767 12.218 28.9948 10.6589C29.0129 8.99096 27.6714 7.7219 25.8947 7.74003C24.2812 7.74003 23.1571 8.93657 23.1753 10.5864ZM85.45 45.8119C85.4318 47.371 86.6828 48.6945 88.1875 48.7126C89.8736 48.7489 91.197 47.5342 91.2333 45.9207C91.2695 44.3072 89.9642 42.9656 88.3507 42.9475C86.7734 42.9475 85.4681 44.2528 85.45 45.8119ZM49.8074 4.76679C49.8256 3.29831 48.484 1.97485 46.9611 1.97485C45.3476 1.97485 44.0241 3.29831 44.0423 4.8937C44.0604 6.39844 45.3476 7.74003 46.8523 7.75816C48.4296 7.79441 49.7893 6.41657 49.8074 4.76679ZM5.7347 49.4559C7.38448 49.4559 8.72607 48.0962 8.70794 46.4646C8.68981 44.978 7.34823 43.6908 5.82535 43.6908C4.22996 43.6908 2.90651 45.0323 2.92464 46.6459C2.94276 48.1687 4.22996 49.4559 5.7347 49.4559ZM13.9836 25.9964C14.0017 24.3829 12.8052 23.1501 11.2461 23.1319C9.54189 23.1138 8.23657 24.3285 8.21844 25.9239C8.21844 27.5012 9.41498 28.734 11.0104 28.7521C12.6239 28.7883 13.9655 27.5374 13.9836 25.9964ZM82.9844 69.3258C84.6523 69.3258 85.9395 68.0568 85.9395 66.4433C85.9395 64.9748 84.5798 63.6332 83.0931 63.6513C81.4434 63.6694 80.0837 64.9748 80.1199 66.5339C80.1562 68.0386 81.4978 69.344 82.9844 69.3258ZM67.3386 7.32305C65.8158 7.34118 64.4379 8.79153 64.4561 10.3507C64.4742 11.7466 65.8339 13.052 67.248 13.0157C68.8615 12.9794 70.2756 11.5835 70.2212 10.0787C70.185 8.53772 68.8978 7.30492 67.3386 7.32305ZM11.6087 70.0691C13.204 70.0691 14.3462 68.927 14.3462 67.3497C14.3462 65.7543 13.0771 64.4127 11.5543 64.3946C9.94074 64.3946 8.65355 65.6274 8.65355 67.2047C8.63542 68.8363 9.92261 70.0691 11.6087 70.0691Z" fill="#564A8D"/>
<path d="M34.7605 40.6268C34.126 40.3367 33.564 40.0829 33.002 39.8291C33.7634 37.2184 37.2986 35.7318 39.6736 36.5295C39.5467 37.1278 39.4198 37.7442 39.2748 38.415C37.3712 38.3243 35.7214 38.7594 34.7605 40.6268Z" fill="#564A8D"/>
<path d="M37.2264 54.9856C36.8275 55.6383 36.465 56.2184 36.1024 56.7986C33.9631 55.7108 32.8391 53.2271 33.5099 50.979C34.1263 51.1422 34.7427 51.3053 35.486 51.4866C35.2503 53.0276 35.8486 54.1879 37.2264 54.9856Z" fill="#564A8D"/>
<path d="M61.0302 39.7929C60.4682 40.0467 59.9061 40.3186 59.2716 40.6268C58.3289 38.7958 56.7697 38.2156 54.7392 38.4151C54.5942 37.7624 54.4673 37.1279 54.3223 36.4933C57.2411 35.7863 60.2143 37.2548 61.0302 39.7929Z" fill="#564A8D"/>
<path d="M58.6554 51.5048C59.4531 51.3598 60.0876 51.2329 60.7221 51.106C61.4836 53.1546 60.3596 55.8015 58.2022 56.9436C57.8577 56.3998 57.5132 55.8378 57.0781 55.1307C58.4016 54.333 58.9273 53.1002 58.6554 51.5048Z" fill="#564A8D"/>
</svg>
