<svg width="12" height="21" viewBox="0 0 12 21" fill="none" xmlns="http://www.w3.org/2000/svg">
<path fill-rule="evenodd" clip-rule="evenodd" d="M11.225 11.6768C11.2453 11.9325 11.2656 12.1417 11.283 12.3539C11.3411 13.0513 11.3091 13.7459 11.2279 14.4375C11.2134 14.5654 11.1902 14.6961 11.1612 14.8211C11.1525 14.8618 11.1148 14.9112 11.0771 14.9228C10.7434 15.0449 10.4156 15.1843 10.0733 15.2744C9.61778 15.3936 9.1565 15.4866 8.69232 15.5621C7.73785 15.719 6.77758 15.6871 5.81731 15.5941C5.33862 15.5476 4.86283 15.472 4.38705 15.3907C4.12305 15.3442 3.86775 15.2541 3.60374 15.1872C3.06704 15.0565 2.54483 14.8792 2.03714 14.6554C1.80795 14.5537 1.57005 14.4695 1.34377 14.3648C1.1755 14.2893 1.00433 14.2108 0.862178 14.0975C0.783848 14.0365 0.757738 13.9028 0.722924 13.7953C0.717122 13.7778 0.807057 13.7023 0.847673 13.7081C1.1871 13.7459 1.52364 13.8156 1.86307 13.833C2.35916 13.8621 2.85815 13.8882 3.35425 13.8621C4.0128 13.8272 4.66846 13.7488 5.32411 13.6732C5.69546 13.6296 6.0668 13.5628 6.43234 13.4843C6.8443 13.3942 7.25336 13.2867 7.66242 13.1763C8.03377 13.0775 8.40221 12.9699 8.77065 12.8624C8.87509 12.8305 8.97373 12.7811 9.07527 12.7404C9.31026 12.6416 9.54526 12.5457 9.77735 12.441C10.0268 12.3306 10.2763 12.2202 10.52 12.0952C10.6912 12.008 10.8479 11.8947 11.0103 11.793C11.0683 11.761 11.1322 11.7291 11.225 11.6768Z" fill="#B76EF9"/>
<path fill-rule="evenodd" clip-rule="evenodd" d="M3.33343 13.1994C2.62556 13.1674 1.89737 13.1354 1.16919 13.0977C1.04154 13.0918 0.910991 13.0541 0.789144 13.0105C0.742726 12.993 0.684703 12.9146 0.687605 12.8652C0.716616 12.4089 0.739825 11.9498 0.797847 11.4935C0.832661 11.2174 0.919695 10.9501 0.995124 10.6798C1.00383 10.6479 1.08796 10.613 1.12858 10.6188C1.60146 10.7089 2.06854 10.8251 2.54143 10.8978C3.43787 11.0402 4.34012 11.1332 5.24818 11.1099C5.8313 11.0954 6.41733 11.1099 6.99756 11.0721C7.51396 11.0402 8.03326 10.9675 8.54386 10.8862C9.05736 10.8048 9.56796 10.7002 10.0757 10.5927C10.2845 10.5462 10.4876 10.4619 10.6907 10.3863C10.8822 10.3137 10.9228 10.3282 10.975 10.5258C11.0011 10.6246 11.0359 10.7205 11.0446 10.8193C11.062 10.9792 10.9228 11.0315 10.8212 11.0954C10.5805 11.2494 10.3368 11.3976 10.0902 11.5429C10.0031 11.5923 9.90739 11.6243 9.81745 11.665C9.62888 11.7463 9.44321 11.8335 9.25464 11.9091C8.97323 12.0195 8.69182 12.127 8.4046 12.2258C8.03906 12.3537 7.67642 12.5019 7.29928 12.5891C6.57399 12.7576 5.84871 12.9291 5.10602 13.0076C4.5258 13.0744 3.93977 13.1354 3.33343 13.1994Z" fill="#B76EF9"/>
<path fill-rule="evenodd" clip-rule="evenodd" d="M10.9767 15.7334C10.9013 15.9542 10.8404 16.1489 10.7678 16.3407C10.7504 16.3843 10.7011 16.4221 10.6605 16.4454C10.4603 16.5645 10.2601 16.6836 10.0542 16.7883C9.81337 16.9103 9.56677 17.0237 9.31728 17.1254C9.15481 17.1922 8.98075 17.2387 8.80958 17.2823C8.51657 17.3608 8.22355 17.4276 7.93054 17.5031C7.40543 17.6368 6.87163 17.6979 6.32911 17.7211C6.05351 17.7327 5.7808 17.7705 5.5052 17.7676C5.18317 17.7647 4.86114 17.7356 4.53912 17.7124C4.26061 17.692 3.9792 17.6804 3.70359 17.6339C3.33225 17.5729 2.96381 17.5031 2.60117 17.4072C2.26754 17.3201 1.93971 17.2038 1.62058 17.076C1.53355 17.0411 1.45232 16.9307 1.4146 16.8377C1.28986 16.5471 1.18541 16.2477 1.07807 15.9513C1.05486 15.8903 1.05777 15.8176 1.04036 15.7537C0.979435 15.5096 0.918511 15.2684 0.857587 15.0243C0.848884 14.9923 0.843082 14.9604 0.86339 14.8906C0.933017 14.9226 1.00555 14.9546 1.07517 14.9894C1.17671 15.0417 1.27245 15.1057 1.37979 15.1464C1.70762 15.28 2.03545 15.4195 2.36908 15.5358C2.70851 15.6549 3.05374 15.7566 3.39898 15.8496C3.7239 15.9368 4.05173 16.0182 4.38246 16.0734C4.90466 16.1606 5.42977 16.2506 5.95777 16.2826C6.60182 16.3233 7.25167 16.3262 7.89572 16.3088C8.3512 16.2971 8.80958 16.2419 9.26216 16.178C9.55227 16.1373 9.83658 16.0559 10.118 15.9775C10.3733 15.9077 10.6199 15.8147 10.8694 15.7334C10.8926 15.7276 10.9187 15.7334 10.9767 15.7334Z" fill="#B76EF9"/>
<path fill-rule="evenodd" clip-rule="evenodd" d="M5.46689 10.4475C4.69229 10.4039 3.90609 10.3836 3.12278 10.3051C2.54546 10.2441 1.97684 10.1075 1.40531 9.99708C1.22254 9.9622 1.20804 9.93314 1.27476 9.7675C1.41982 9.41296 1.57648 9.06424 1.73604 8.71552C1.80277 8.57312 1.884 8.43944 1.96523 8.30286C2.02325 8.20696 2.09868 8.16918 2.20312 8.25055C2.24084 8.27961 2.29016 8.29705 2.33658 8.30576C2.87909 8.41038 3.4216 8.52081 3.96411 8.61671C4.39928 8.69517 4.83445 8.77364 5.27542 8.82594C5.71929 8.87825 6.16897 8.91603 6.61574 8.93637C7.19016 8.96253 7.76459 8.98868 8.33611 8.97415C8.97726 8.95672 9.61551 8.89569 10.2538 8.8521C10.335 8.84629 10.3669 8.86082 10.3959 8.94509C10.4394 9.07586 10.512 9.19501 10.5729 9.31997C10.5932 9.35775 10.6193 9.39262 10.6309 9.43331C10.7005 9.67451 10.6715 9.72391 10.3582 9.814C10.0246 9.90699 9.69094 10.0087 9.3515 10.061C8.63493 10.1714 7.92415 10.34 7.19306 10.3574C6.62734 10.369 6.05292 10.4155 5.46689 10.4475Z" fill="#B76EF9"/>
<path fill-rule="evenodd" clip-rule="evenodd" d="M8.87175 8.27658C8.14937 8.27658 7.42409 8.29983 6.7017 8.26786C6.15339 8.24461 5.60798 8.16324 5.06547 8.08769C4.42142 7.9976 3.78027 7.89007 3.14202 7.77965C2.94474 7.74477 2.75037 7.68665 2.55599 7.63144C2.53569 7.62563 2.50667 7.55588 2.51828 7.53554C2.55309 7.4687 2.59661 7.40477 2.64883 7.34955C2.78808 7.19844 2.92734 7.05023 3.07529 6.90784C3.17103 6.81484 3.26677 6.71894 3.37701 6.6492C3.69324 6.44578 4.00946 6.23945 4.34309 6.06509C4.70283 5.8791 5.10028 5.79773 5.50064 5.73089C5.96772 5.65243 6.4203 5.71636 6.87577 5.80064C7.40088 5.89944 7.87376 6.12902 8.30603 6.42253C8.63676 6.6492 8.92397 6.94271 9.22279 7.21588C9.35624 7.33793 9.48099 7.4687 9.59413 7.60819C9.70727 7.75059 9.80011 7.90461 9.89875 8.05862C9.95677 8.15452 9.91325 8.20393 9.81171 8.21555C9.50129 8.24461 9.18797 8.27077 8.87755 8.29983C8.87465 8.29692 8.87465 8.2853 8.87175 8.27658Z" fill="#B76EF9"/>
<path fill-rule="evenodd" clip-rule="evenodd" d="M10.2847 17.4978C10.2121 17.6343 10.1483 17.7767 10.0642 17.9075C9.92493 18.1226 9.77117 18.3318 9.62612 18.5439C9.60581 18.573 9.5884 18.6021 9.56809 18.6253C9.41143 18.8055 9.26058 18.9944 9.08941 19.1658C8.97046 19.285 8.82541 19.3809 8.69195 19.4855C8.49758 19.6366 8.3061 19.7935 8.10303 19.9359C8.01599 19.997 7.91155 20.0376 7.81001 20.0754C7.48218 20.2033 7.16016 20.3602 6.81783 20.4387C6.52191 20.5084 6.20569 20.4823 5.89817 20.4997C5.86335 20.5026 5.83144 20.491 5.79663 20.491C5.41078 20.5084 5.04814 20.4038 4.6855 20.2817C4.46791 20.2091 4.27064 20.0987 4.06466 19.9999C3.71652 19.8342 3.4177 19.6017 3.1392 19.346C2.8839 19.1106 2.66341 18.8404 2.43132 18.5788C2.31527 18.448 2.20503 18.3085 2.09769 18.1691C2.05998 18.1167 2.04257 18.0499 2.00195 17.9598C2.08318 17.9656 2.14121 17.9569 2.18763 17.9773C2.57638 18.1313 2.98544 18.1865 3.39159 18.262C4.22132 18.4132 5.05394 18.5033 5.89527 18.4509C6.4842 18.4132 7.07022 18.3173 7.65625 18.2388C7.93766 18.201 8.21907 18.1516 8.49178 18.0819C8.8196 17.9976 9.14453 17.8901 9.46656 17.7826C9.63772 17.7244 9.80599 17.6518 9.97425 17.5791C10.0265 17.5559 10.0729 17.521 10.1251 17.4978C10.1686 17.4803 10.215 17.4745 10.2615 17.4629C10.2702 17.4774 10.2789 17.489 10.2847 17.4978Z" fill="#B76EF9"/>
<path fill-rule="evenodd" clip-rule="evenodd" d="M6.33299 2.8977C6.33299 3.60386 6.33299 4.31003 6.33299 5.01619C6.33299 5.05978 6.33879 5.10919 6.32139 5.14406C6.30688 5.17312 6.26336 5.20509 6.22855 5.20509C6.0922 5.2109 5.95584 5.19927 5.81949 5.20509C5.71795 5.2109 5.63962 5.14406 5.63672 5.02782C5.63672 4.86799 5.64252 4.70815 5.64252 4.54832C5.64252 3.31326 5.64252 2.0811 5.64252 0.846036C5.64252 0.604835 5.75276 0.494406 5.99646 0.500218C6.04868 0.500218 6.1009 0.511842 6.15312 0.52056C6.29237 0.540902 6.33589 0.619365 6.33589 0.761761C6.32719 1.47374 6.33009 2.18572 6.33299 2.8977Z" fill="#B76EF9"/>
</svg>
