<svg width="335" height="90" viewBox="0 0 335 90" fill="none" xmlns="http://www.w3.org/2000/svg">
<path d="M242.163 35.8522C244.758 32.8687 248.584 31.377 253.643 31.377V44.3487C252.476 44.1757 251.395 44.0892 250.4 44.0892C245.385 44.0892 242.877 46.6403 242.877 51.7426V67.5032H228.219V32.0255H242.163V35.8522Z" fill="#B76EF9"/>
<path d="M205.887 57.3204C207.444 57.3204 208.741 57.1258 209.779 56.7367C210.86 56.3475 212.027 55.6773 213.281 54.7261L220.934 62.4442C217.389 66.2493 212.222 68.1518 205.433 68.1518C201.152 68.1518 197.391 67.3735 194.148 65.8169C190.905 64.217 188.397 62.0118 186.624 59.2013C184.851 56.3908 183.965 53.2343 183.965 49.7319C183.965 46.1863 184.851 43.0299 186.624 40.2626C188.397 37.452 190.818 35.2685 193.888 33.7119C197.001 32.1553 200.482 31.377 204.33 31.377C207.833 31.377 211.054 32.0904 213.994 33.5173C216.935 34.9009 219.27 36.9764 220.999 39.7437C222.729 42.4678 223.593 45.7323 223.593 49.5374L199.336 54.2072C200.417 56.2827 202.601 57.3204 205.887 57.3204ZM204.395 41.3652C202.709 41.3652 201.325 41.8624 200.244 42.8569C199.207 43.8514 198.58 45.3216 198.363 47.2673L209.714 45.0621C209.325 43.9379 208.654 43.0515 207.703 42.4029C206.795 41.7111 205.692 41.3652 204.395 41.3652Z" fill="#B76EF9"/>
<path d="M164.318 31.377C168.685 31.377 172.188 32.6957 174.825 35.3333C177.506 37.9709 178.846 41.9489 178.846 47.2673V67.5032H164.188V49.7968C164.188 45.7323 162.74 43.7001 159.843 43.7001C158.2 43.7001 156.859 44.2838 155.822 45.4513C154.827 46.5755 154.33 48.3699 154.33 50.8345V67.5032H139.672V32.0255H153.616V35.5279C155 34.1443 156.6 33.1065 158.416 32.4147C160.232 31.7229 162.199 31.377 164.318 31.377Z" fill="#B76EF9"/>
<path d="M118.779 31.377C123.146 31.377 126.649 32.6957 129.286 35.3333C131.967 37.9709 133.307 41.9489 133.307 47.2673V67.5032H118.649V49.7968C118.649 45.7323 117.201 43.7001 114.304 43.7001C112.661 43.7001 111.32 44.2838 110.283 45.4513C109.288 46.5755 108.791 48.3699 108.791 50.8345V67.5032H94.1328V32.0255H108.077V35.5279C109.461 34.1443 111.061 33.1065 112.877 32.4147C114.693 31.7229 116.66 31.377 118.779 31.377Z" fill="#B76EF9"/>
<path d="M72.9761 32.0232H87.6342V67.5009H72.9761V32.0232ZM80.3051 29.1694C77.6676 29.1694 75.5272 28.4776 73.8841 27.094C72.2843 25.6671 71.4844 23.8726 71.4844 21.7107C71.4844 19.5487 72.2843 17.7759 73.8841 16.3923C75.5272 14.9654 77.6676 14.252 80.3051 14.252C82.986 14.252 85.1263 14.9222 86.7262 16.2626C88.326 17.603 89.1259 19.3325 89.1259 21.4513C89.1259 23.6997 88.326 25.559 86.7262 27.0291C85.1263 28.456 82.986 29.1694 80.3051 29.1694Z" fill="#B76EF9"/>
<path fill-rule="evenodd" clip-rule="evenodd" d="M25.8174 43.3412C25.8174 48.7077 27.0243 54.2345 29.3991 59.7729L29.403 59.7768C31.7074 65.1473 34.5235 70.881 37.7731 76.8257C38.3824 77.9427 38.4957 79.2707 38.0856 80.4659C37.6677 81.6767 36.781 82.6493 35.5859 83.2039L21.3843 89.5313C20.7008 89.8477 19.9743 90 19.2557 90C17.6582 90 16.0998 89.2501 15.1741 87.9065C13.1665 84.9927 11.6237 82.3563 9.80359 78.1693C9.23356 76.8594 8.68217 75.6653 8.14806 74.5087C7.09754 72.2337 6.1139 70.1036 5.18692 67.522C3.5621 63.0147 2.51534 59.1011 1.52327 55.1562C0.511662 51.1372 0 47.0556 0 43.0248C0 39.2166 0.472603 35.3381 1.40609 31.4948C2.32396 27.7296 3.60116 23.8824 5.19864 20.0547C5.7681 18.6917 6.0527 17.8887 6.28447 17.2347C6.69493 16.0767 6.93972 15.386 8.30766 12.8797C10.1903 9.42699 12.2447 5.87661 14.4046 2.32232C15.6154 0.330355 18.2128 -0.52502 20.4469 0.330353L33.8517 4.82984C35.1679 5.33369 36.1874 6.35701 36.6521 7.63422C37.1169 8.91142 36.9021 10.2706 36.2811 11.4854C35.8743 12.279 35.5646 12.844 35.2873 13.3499C34.8592 14.1311 34.5083 14.7713 33.9962 15.895C33.4182 17.1628 33.0848 17.649 32.7565 18.1279C32.3615 18.7039 31.9738 19.2694 31.1762 21.1718C29.7232 24.6323 28.446 28.3741 27.3758 32.2955C26.3408 36.0881 25.8174 39.8025 25.8174 43.3412ZM298.476 43.3451C298.476 48.7117 297.269 54.2384 294.894 59.7768H294.89C292.586 65.1473 289.77 70.8811 286.52 76.8257C285.911 77.9428 285.797 79.2707 286.208 80.4659C286.625 81.6767 287.512 82.6493 288.707 83.2039L302.909 89.5313C303.592 89.8477 304.319 90 305.037 90C306.635 90 308.193 89.2501 309.119 87.9065C311.127 84.9928 312.669 82.3563 314.49 78.1693C315.06 76.8595 315.611 75.6654 316.145 74.5088C317.196 72.2338 318.179 70.1037 319.106 67.5221C320.731 63.0147 321.778 59.1011 322.77 55.1562C323.781 51.1372 324.293 47.0556 324.293 43.0248C324.293 39.2166 323.821 35.3382 322.887 31.4988C321.969 27.7335 320.692 23.8863 319.094 20.0586C318.525 18.6956 318.24 17.8926 318.009 17.2387C317.598 16.0806 317.353 15.3899 315.985 12.8836C314.103 9.4309 312.048 5.88052 309.888 2.32623C308.678 0.334261 306.08 -0.521114 303.846 0.334259L290.441 4.83376C289.125 5.33761 288.106 6.36093 287.641 7.63813C287.176 8.91533 287.391 10.2746 288.012 11.4893C288.419 12.2829 288.728 12.8479 289.006 13.3537C289.434 14.135 289.785 14.7752 290.297 15.8989C290.875 17.1667 291.208 17.6529 291.537 18.1318C291.932 18.7078 292.319 19.2733 293.117 21.1757C294.57 24.6362 295.847 28.378 296.917 32.2994C297.952 36.092 298.476 39.8064 298.476 43.3451Z" fill="white"/>
<path d="M329.307 0C330.242 0 331.087 0.217186 331.843 0.651558C332.607 1.08593 333.207 1.68555 333.641 2.45042C334.076 3.20585 334.293 4.04627 334.293 4.97167C334.293 5.89707 334.071 6.74693 333.627 7.52125C333.183 8.28612 332.579 8.89046 331.814 9.33428C331.049 9.77809 330.204 10 329.279 10C328.353 10 327.508 9.77809 326.743 9.33428C325.988 8.89046 325.388 8.28612 324.945 7.52125C324.51 6.75637 324.293 5.91596 324.293 5C324.293 4.08404 324.51 3.24363 324.945 2.47875C325.388 1.71388 325.993 1.10954 326.758 0.665722C327.522 0.221907 328.372 0 329.307 0ZM329.279 9.07932C330.034 9.07932 330.719 8.8999 331.333 8.54108C331.956 8.1728 332.442 7.67705 332.792 7.05382C333.15 6.42115 333.33 5.7271 333.33 4.97167C333.33 4.2068 333.155 3.51747 332.806 2.90368C332.466 2.2899 331.989 1.80831 331.375 1.45892C330.761 1.10009 330.072 0.92068 329.307 0.92068C328.542 0.92068 327.853 1.10009 327.239 1.45892C326.625 1.81775 326.144 2.30878 325.794 2.93201C325.445 3.55524 325.27 4.24457 325.27 5C325.27 5.75543 325.445 6.44476 325.794 7.06799C326.144 7.69122 326.621 8.18225 327.225 8.54108C327.839 8.8999 328.523 9.07932 329.279 9.07932ZM331.913 4.2068C331.913 4.6034 331.824 4.94806 331.644 5.24079C331.474 5.52408 331.219 5.74599 330.879 5.90652L332.083 7.74787H330.61L329.576 6.16147H329.52H328.599V7.74787H327.126V2.25212H329.52C330.266 2.25212 330.851 2.43154 331.276 2.79037C331.701 3.13975 331.913 3.6119 331.913 4.2068ZM329.42 5.05666C329.751 5.05666 330.006 4.98584 330.185 4.84419C330.374 4.69311 330.469 4.48064 330.469 4.2068C330.469 3.93296 330.374 3.72049 330.185 3.5694C330.006 3.41832 329.751 3.34278 329.42 3.34278H328.585V5.05666H329.42Z" fill="#B76EF9"/>
</svg>
