<svg width="12" height="21" viewBox="0 0 12 21" fill="none" xmlns="http://www.w3.org/2000/svg">
<g id="Group">
<path id="Vector" fill-rule="evenodd" clip-rule="evenodd" d="M11.225 11.6768C11.2453 11.9325 11.2656 12.1417 11.283 12.3539C11.3411 13.0513 11.3091 13.7459 11.2279 14.4375C11.2134 14.5654 11.1902 14.6961 11.1612 14.8211C11.1525 14.8618 11.1148 14.9112 11.0771 14.9228C10.7434 15.0449 10.4156 15.1843 10.0733 15.2744C9.61778 15.3936 9.1565 15.4866 8.69232 15.5621C7.73785 15.719 6.77758 15.6871 5.81731 15.5941C5.33862 15.5476 4.86283 15.472 4.38705 15.3907C4.12305 15.3442 3.86775 15.2541 3.60374 15.1872C3.06704 15.0565 2.54483 14.8792 2.03714 14.6554C1.80795 14.5537 1.57005 14.4695 1.34377 14.3648C1.1755 14.2893 1.00433 14.2108 0.862178 14.0975C0.783848 14.0365 0.757738 13.9028 0.722924 13.7953C0.717122 13.7778 0.807057 13.7023 0.847673 13.7081C1.1871 13.7459 1.52364 13.8156 1.86307 13.833C2.35916 13.8621 2.85815 13.8882 3.35425 13.8621C4.0128 13.8272 4.66846 13.7488 5.32411 13.6732C5.69546 13.6296 6.0668 13.5628 6.43234 13.4843C6.8443 13.3942 7.25336 13.2867 7.66242 13.1763C8.03377 13.0775 8.40221 12.9699 8.77065 12.8624C8.87509 12.8305 8.97373 12.7811 9.07527 12.7404C9.31026 12.6416 9.54526 12.5457 9.77735 12.441C10.0268 12.3306 10.2763 12.2202 10.52 12.0952C10.6912 12.008 10.8479 11.8947 11.0103 11.793C11.0683 11.761 11.1322 11.7291 11.225 11.6768Z" fill="#B76EF9"/>
<path id="Vector_2" fill-rule="evenodd" clip-rule="evenodd" d="M3.33343 13.1999C2.62556 13.1679 1.89737 13.1359 1.16919 13.0981C1.04154 13.0923 0.910991 13.0546 0.789144 13.011C0.742726 12.9935 0.684703 12.9151 0.687605 12.8657C0.716616 12.4094 0.739825 11.9503 0.797847 11.494C0.832661 11.2179 0.919695 10.9506 0.995124 10.6803C1.00383 10.6484 1.08796 10.6135 1.12858 10.6193C1.60146 10.7094 2.06854 10.8256 2.54143 10.8983C3.43787 11.0407 4.34012 11.1337 5.24818 11.1104C5.8313 11.0959 6.41733 11.1104 6.99756 11.0726C7.51396 11.0407 8.03326 10.968 8.54386 10.8866C9.05736 10.8053 9.56796 10.7007 10.0757 10.5931C10.2845 10.5466 10.4876 10.4624 10.6907 10.3868C10.8822 10.3142 10.9228 10.3287 10.975 10.5263C11.0011 10.6251 11.0359 10.721 11.0446 10.8198C11.062 10.9796 10.9228 11.032 10.8212 11.0959C10.5805 11.2499 10.3368 11.3981 10.0902 11.5434C10.0031 11.5928 9.90739 11.6248 9.81745 11.6655C9.62888 11.7468 9.44321 11.834 9.25464 11.9096C8.97323 12.02 8.69182 12.1275 8.4046 12.2263C8.03906 12.3542 7.67642 12.5024 7.29928 12.5896C6.57399 12.7581 5.84871 12.9296 5.10602 13.0081C4.5258 13.0749 3.93977 13.1359 3.33343 13.1999Z" fill="#B76EF9"/>
<path id="Vector_3" fill-rule="evenodd" clip-rule="evenodd" d="M10.9772 15.7334C10.9018 15.9542 10.8409 16.1489 10.7683 16.3407C10.7509 16.3843 10.7016 16.4221 10.661 16.4454C10.4608 16.5645 10.2606 16.6836 10.0547 16.7883C9.81386 16.9103 9.56726 17.0237 9.31777 17.1254C9.1553 17.1922 8.98123 17.2387 8.81007 17.2823C8.51705 17.3608 8.22404 17.4276 7.93103 17.5031C7.40592 17.6368 6.87211 17.6979 6.3296 17.7211C6.054 17.7327 5.78129 17.7705 5.50568 17.7676C5.18366 17.7647 4.86163 17.7356 4.53961 17.7124C4.2611 17.692 3.97969 17.6804 3.70408 17.6339C3.33274 17.5729 2.96429 17.5031 2.60165 17.4072C2.26802 17.3201 1.9402 17.2038 1.62107 17.076C1.53404 17.0411 1.45281 16.9307 1.41509 16.8377C1.29034 16.5471 1.1859 16.2477 1.07856 15.9513C1.05535 15.8903 1.05825 15.8176 1.04085 15.7537C0.979923 15.5096 0.918999 15.2684 0.858076 15.0243C0.849372 14.9923 0.84357 14.9604 0.863878 14.8906C0.933505 14.9226 1.00603 14.9546 1.07566 14.9894C1.1772 15.0417 1.27294 15.1057 1.38028 15.1464C1.70811 15.28 2.03593 15.4195 2.36956 15.5358C2.709 15.6549 3.05423 15.7566 3.39946 15.8496C3.72439 15.9368 4.05222 16.0182 4.38295 16.0734C4.90515 16.1606 5.43025 16.2506 5.95826 16.2826C6.60231 16.3233 7.25216 16.3262 7.89621 16.3088C8.35169 16.2971 8.81007 16.2419 9.26264 16.178C9.55276 16.1373 9.83707 16.0559 10.1185 15.9775C10.3738 15.9077 10.6204 15.8147 10.8699 15.7334C10.8931 15.7276 10.9192 15.7334 10.9772 15.7334Z" fill="#B76EF9"/>
<path id="Vector_4" fill-rule="evenodd" clip-rule="evenodd" d="M5.46641 10.4475C4.6918 10.4039 3.9056 10.3836 3.12229 10.3051C2.54497 10.2441 1.97635 10.1075 1.40483 9.99708C1.22205 9.9622 1.20755 9.93314 1.27428 9.7675C1.41933 9.41296 1.57599 9.06424 1.73555 8.71552C1.80228 8.57312 1.88351 8.43944 1.96474 8.30286C2.02277 8.20696 2.0982 8.16918 2.20264 8.25055C2.24035 8.27961 2.28967 8.29705 2.33609 8.30576C2.8786 8.41038 3.42111 8.52081 3.96362 8.61671C4.39879 8.69517 4.83396 8.77364 5.27493 8.82594C5.7188 8.87825 6.16848 8.91603 6.61525 8.93637C7.18967 8.96253 7.7641 8.98868 8.33562 8.97415C8.97677 8.95672 9.61502 8.89569 10.2533 8.8521C10.3345 8.84629 10.3664 8.86082 10.3954 8.94509C10.4389 9.07586 10.5115 9.19501 10.5724 9.31997C10.5927 9.35775 10.6188 9.39262 10.6304 9.43331C10.7 9.67451 10.671 9.72391 10.3577 9.814C10.0241 9.90699 9.69045 10.0087 9.35102 10.061C8.63444 10.1714 7.92366 10.34 7.19258 10.3574C6.62686 10.369 6.05243 10.4155 5.46641 10.4475Z" fill="#B76EF9"/>
<path id="Vector_5" fill-rule="evenodd" clip-rule="evenodd" d="M8.87126 8.27658C8.14888 8.27658 7.4236 8.29983 6.70122 8.26786C6.1529 8.24461 5.60749 8.16324 5.06498 8.08769C4.42093 7.9976 3.77978 7.89007 3.14153 7.77965C2.94426 7.74477 2.74988 7.68665 2.5555 7.63144C2.5352 7.62563 2.50619 7.55588 2.51779 7.53554C2.5526 7.4687 2.59612 7.40477 2.64834 7.34955C2.78759 7.19844 2.92685 7.05023 3.07481 6.90784C3.17054 6.81484 3.26628 6.71894 3.37652 6.6492C3.69275 6.44578 4.00897 6.23945 4.3426 6.06509C4.70234 5.8791 5.09979 5.79773 5.50015 5.73089C5.96723 5.65243 6.41981 5.71636 6.87528 5.80064C7.40039 5.89944 7.87327 6.12902 8.30554 6.42253C8.63627 6.6492 8.92348 6.94271 9.2223 7.21588C9.35575 7.33793 9.4805 7.4687 9.59364 7.60819C9.70679 7.75059 9.79962 7.90461 9.89826 8.05862C9.95628 8.15452 9.91277 8.20393 9.81123 8.21555C9.5008 8.24461 9.18748 8.27077 8.87706 8.29983C8.87416 8.29692 8.87416 8.2853 8.87126 8.27658Z" fill="#B76EF9"/>
<path id="Vector_6" fill-rule="evenodd" clip-rule="evenodd" d="M10.2847 17.4978C10.2121 17.6343 10.1483 17.7767 10.0642 17.9075C9.92493 18.1226 9.77117 18.3318 9.62612 18.5439C9.60581 18.573 9.5884 18.6021 9.56809 18.6253C9.41143 18.8055 9.26058 18.9944 9.08941 19.1658C8.97046 19.285 8.82541 19.3809 8.69195 19.4855C8.49758 19.6366 8.3061 19.7935 8.10303 19.9359C8.01599 19.997 7.91155 20.0376 7.81001 20.0754C7.48218 20.2033 7.16016 20.3602 6.81783 20.4387C6.52191 20.5084 6.20569 20.4823 5.89817 20.4997C5.86335 20.5026 5.83144 20.491 5.79663 20.491C5.41078 20.5084 5.04814 20.4038 4.6855 20.2817C4.46791 20.2091 4.27064 20.0987 4.06466 19.9999C3.71652 19.8342 3.4177 19.6017 3.1392 19.346C2.8839 19.1106 2.66341 18.8404 2.43132 18.5788C2.31527 18.448 2.20503 18.3085 2.09769 18.1691C2.05998 18.1167 2.04257 18.0499 2.00195 17.9598C2.08318 17.9656 2.14121 17.9569 2.18763 17.9773C2.57638 18.1313 2.98544 18.1865 3.39159 18.262C4.22132 18.4132 5.05394 18.5033 5.89527 18.4509C6.4842 18.4132 7.07022 18.3173 7.65625 18.2388C7.93766 18.201 8.21907 18.1516 8.49178 18.0819C8.8196 17.9976 9.14453 17.8901 9.46656 17.7826C9.63772 17.7244 9.80599 17.6518 9.97425 17.5791C10.0265 17.5559 10.0729 17.521 10.1251 17.4978C10.1686 17.4803 10.215 17.4745 10.2615 17.4629C10.2702 17.4774 10.2789 17.489 10.2847 17.4978Z" fill="#B76EF9"/>
<path id="Vector_7" fill-rule="evenodd" clip-rule="evenodd" d="M6.33348 2.8977C6.33348 3.60386 6.33348 4.31003 6.33348 5.01619C6.33348 5.05978 6.33928 5.10919 6.32187 5.14406C6.30737 5.17312 6.26385 5.20509 6.22904 5.20509C6.09268 5.2109 5.95633 5.19927 5.81998 5.20509C5.71844 5.2109 5.64011 5.14406 5.63721 5.02782C5.63721 4.86799 5.64301 4.70815 5.64301 4.54832C5.64301 3.31326 5.64301 2.0811 5.64301 0.846036C5.64301 0.604835 5.75325 0.494406 5.99695 0.500218C6.04917 0.500218 6.10139 0.511842 6.15361 0.52056C6.29286 0.540902 6.33638 0.619365 6.33638 0.761761C6.32768 1.47374 6.33058 2.18572 6.33348 2.8977Z" fill="#B76EF9"/>
</g>
</svg>
