<svg width="132" height="37" viewBox="0 0 132 37" fill="none" xmlns="http://www.w3.org/2000/svg">
<path d="M131.859 17.1478L125.338 0.844673C125.146 0.365813 124.622 0.111171 124.127 0.256698L117.585 2.18085C117.009 2.3504 116.711 2.98647 116.95 3.53782L122.824 17.094C122.936 17.3526 122.934 17.6464 122.818 17.9032L116.414 32.0832C116.186 32.5886 116.412 33.1833 116.919 33.4086L124.016 36.5628C124.547 36.7989 125.167 36.5339 125.364 35.9869L131.872 17.857C131.954 17.627 131.95 17.3747 131.859 17.1478Z" fill="#AA5EA6"/>
<path d="M0.140885 17.1478L6.66213 0.844673C6.85367 0.365813 7.37798 0.111171 7.87277 0.256698L14.4149 2.18085C14.9914 2.3504 15.2892 2.98647 15.0503 3.53782L9.17592 17.094C9.06388 17.3526 9.06612 17.6464 9.1821 17.9032L15.5859 32.0832C15.8142 32.5886 15.5875 33.1833 15.0807 33.4086L7.98365 36.5628C7.4525 36.7989 6.8327 36.5339 6.63631 35.9869L0.128168 17.857C0.0455933 17.627 0.0501175 17.3747 0.140885 17.1478Z" fill="#AA5EA6"/>
<path d="M27.5055 12.684H33.8335V28H27.5055V12.684ZM30.6695 11.452C29.5308 11.452 28.6068 11.1533 27.8975 10.556C27.2068 9.94 26.8615 9.16533 26.8615 8.232C26.8615 7.29867 27.2068 6.53333 27.8975 5.936C28.6068 5.32 29.5308 5.012 30.6695 5.012C31.8268 5.012 32.7508 5.30133 33.4415 5.88C34.1321 6.45867 34.4775 7.20533 34.4775 8.12C34.4775 9.09067 34.1321 9.89333 33.4415 10.528C32.7508 11.144 31.8268 11.452 30.6695 11.452ZM47.2783 12.404C49.1636 12.404 50.6756 12.9733 51.8143 14.112C52.9716 15.2507 53.5503 16.968 53.5503 19.264V28H47.2223V20.356C47.2223 18.6013 46.5969 17.724 45.3463 17.724C44.6369 17.724 44.0583 17.976 43.6103 18.48C43.1809 18.9653 42.9663 19.74 42.9663 20.804V28H36.6383V12.684H42.6583V14.196C43.2556 13.5987 43.9463 13.1507 44.7303 12.852C45.5143 12.5533 46.3636 12.404 47.2783 12.404ZM66.9384 12.404C68.8238 12.404 70.3358 12.9733 71.4744 14.112C72.6318 15.2507 73.2104 16.968 73.2104 19.264V28H66.8824V20.356C66.8824 18.6013 66.2571 17.724 65.0064 17.724C64.2971 17.724 63.7184 17.976 63.2704 18.48C62.8411 18.9653 62.6264 19.74 62.6264 20.804V28H56.2984V12.684H62.3184V14.196C62.9158 13.5987 63.6064 13.1507 64.3904 12.852C65.1744 12.5533 66.0238 12.404 66.9384 12.404ZM84.884 23.604C85.556 23.604 86.116 23.52 86.564 23.352C87.0307 23.184 87.5347 22.8947 88.076 22.484L91.38 25.816C89.8494 27.4587 87.6187 28.28 84.688 28.28C82.84 28.28 81.216 27.944 79.816 27.272C78.416 26.5813 77.3334 25.6293 76.568 24.416C75.8027 23.2027 75.42 21.84 75.42 20.328C75.42 18.7973 75.8027 17.4347 76.568 16.24C77.3334 15.0267 78.3787 14.084 79.704 13.412C81.048 12.74 82.5507 12.404 84.212 12.404C85.724 12.404 87.1147 12.712 88.384 13.328C89.6534 13.9253 90.6614 14.8213 91.408 16.016C92.1547 17.192 92.528 18.6013 92.528 20.244L82.056 22.26C82.5227 23.156 83.4654 23.604 84.884 23.604ZM84.24 16.716C83.512 16.716 82.9147 16.9307 82.448 17.36C82 17.7893 81.7294 18.424 81.636 19.264L86.536 18.312C86.368 17.8267 86.0787 17.444 85.668 17.164C85.276 16.8653 84.8 16.716 84.24 16.716ZM100.545 14.336C101.665 13.048 103.317 12.404 105.501 12.404V18.004C104.997 17.9293 104.53 17.892 104.101 17.892C101.936 17.892 100.853 18.9933 100.853 21.196V28H94.525V12.684H100.545V14.336Z" fill="white"/>
</svg>
