<svg width="32" height="32" viewBox="0 0 32 32" fill="none" xmlns="http://www.w3.org/2000/svg">
<mask id="mask0_1_5498" style="mask-type:alpha" maskUnits="userSpaceOnUse" x="0" y="0" width="32" height="32">
<rect width="32" height="32" transform="matrix(-1 0 0 1 32 0)" fill="#D9D9D9"/>
</mask>
<g mask="url(#mask0_1_5498)">
<path d="M30.666 30.6665L28.066 21.7332C28.4882 20.8221 28.8049 19.8887 29.016 18.9332C29.2271 17.9776 29.3327 16.9998 29.3327 15.9998C29.3327 14.1554 28.9827 12.4221 28.2827 10.7998C27.5827 9.17762 26.6327 7.7665 25.4327 6.5665C24.2327 5.3665 22.8216 4.4165 21.1993 3.7165C19.5771 3.0165 17.8438 2.6665 15.9993 2.6665C14.1549 2.6665 12.4216 3.0165 10.7993 3.7165C9.17713 4.4165 7.76601 5.3665 6.56601 6.5665C5.36601 7.7665 4.41602 9.17762 3.71601 10.7998C3.01602 12.4221 2.66602 14.1554 2.66602 15.9998C2.66602 17.8443 3.01602 19.5776 3.71601 21.1998C4.41602 22.8221 5.36601 24.2332 6.56601 25.4332C7.76601 26.6332 9.17713 27.5832 10.7993 28.2832C12.4216 28.9832 14.1549 29.3332 15.9993 29.3332C16.9993 29.3332 17.9771 29.2276 18.9327 29.0165C19.8882 28.8054 20.8216 28.4887 21.7327 28.0665L30.666 30.6665ZM26.7327 26.7332L22.466 25.4665C22.1549 25.3776 21.8382 25.3443 21.516 25.3665C21.1938 25.3887 20.8882 25.4665 20.5993 25.5998C19.8882 25.9554 19.1438 26.2221 18.366 26.3998C17.5882 26.5776 16.7993 26.6665 15.9993 26.6665C13.0216 26.6665 10.4993 25.6332 8.43268 23.5665C6.36601 21.4998 5.33268 18.9776 5.33268 15.9998C5.33268 13.0221 6.36601 10.4998 8.43268 8.43317C10.4993 6.3665 13.0216 5.33317 15.9993 5.33317C18.9771 5.33317 21.4993 6.3665 23.566 8.43317C25.6327 10.4998 26.666 13.0221 26.666 15.9998C26.666 16.7998 26.5771 17.5887 26.3993 18.3665C26.2216 19.1443 25.9549 19.8887 25.5993 20.5998C25.4438 20.8887 25.3605 21.1943 25.3493 21.5165C25.3382 21.8387 25.3771 22.1554 25.466 22.4665L26.7327 26.7332ZM17.3327 21.3332H14.666V17.3332H10.666V14.6665H14.666V10.6665H17.3327V14.6665H21.3327V17.3332H17.3327V21.3332Z" fill="#564A8D"/>
</g>
</svg>
