<svg width="44" height="44" viewBox="0 0 44 44" fill="none" xmlns="http://www.w3.org/2000/svg">
<path d="M34.9505 5.91534L22.6951 0.844166C22.1014 0.5985 21.436 0.590845 20.8368 0.822788L7.76008 5.88473C7.11733 6.13354 6.60581 6.63667 6.3464 7.27521L0.842573 20.8231C0.597462 21.4265 0.597462 22.1016 0.842573 22.705L6.34905 36.2594C6.60652 36.8932 7.11244 37.3937 7.74891 37.6445L21.7093 43.144C22.3589 43.3999 23.086 43.3725 23.7145 43.0684L36.857 36.7091C37.4182 36.4376 37.8577 35.9661 38.0893 35.3872L43.1307 22.7836C43.3959 22.1206 43.3649 21.3758 43.0456 20.7371L36.2307 7.10735C35.9614 6.56882 35.5068 6.14555 34.9505 5.91534Z" fill="#9667D1" stroke="white"/>
<path d="M31.7482 9.56703L22.7513 5.84417C22.1576 5.5985 21.4921 5.59084 20.893 5.82279L11.2994 9.53642C10.6567 9.78523 10.1451 10.2883 9.88573 10.9269L5.84257 20.8793C5.59746 21.4826 5.59746 22.1578 5.84257 22.7612L9.88838 32.7201C10.1458 33.3538 10.6518 33.8544 11.2882 34.1052L21.5407 38.144C22.1904 38.3999 22.9174 38.3725 23.5459 38.0684L33.2053 33.3945C33.7665 33.1229 34.206 32.6515 34.4376 32.0726L38.1307 22.8398C38.3959 22.1768 38.3649 21.432 38.0456 20.7933L33.0284 10.759C32.7592 10.2205 32.3046 9.79724 31.7482 9.56703Z" fill="#9667D1" stroke="white"/>
<path d="M28.546 13.2187L22.8075 10.8442C22.2138 10.5985 21.5483 10.5908 20.9491 10.8228L14.8387 13.1881C14.196 13.4369 13.6845 13.94 13.4251 14.5786L10.8426 20.9355C10.5975 21.5388 10.5975 22.214 10.8426 22.8173L13.4277 29.1807C13.6852 29.8145 14.1911 30.3151 14.8276 30.5658L21.3722 33.144C22.0218 33.3999 22.7489 33.3725 23.3774 33.0684L29.5536 30.0799C30.1148 29.8083 30.5543 29.3369 30.7859 28.758L33.1307 22.896C33.3959 22.233 33.3649 21.4882 33.0456 20.8495L29.8262 14.4107L29.379 14.6343L29.8262 14.4107C29.5569 13.8722 29.1023 13.4489 28.546 13.2187Z" fill="#9667D1" stroke="white"/>
<path d="M25.3437 16.8704L22.8637 15.8442C22.27 15.5985 21.6045 15.5908 21.0053 15.8228L18.3781 16.8398C17.7353 17.0886 17.2238 17.5917 16.9644 18.2303L15.8426 20.9916C15.5975 21.595 15.5975 22.2702 15.8426 22.8735L16.967 25.6414C17.2245 26.2752 17.7304 26.7758 18.3669 27.0265L21.2036 28.144C21.8533 28.3999 22.5803 28.3725 23.2089 28.0684L25.9019 26.7653C26.4631 26.4937 26.9026 26.0223 27.1342 25.4434L28.1307 22.9522C28.3959 22.2892 28.3649 21.5444 28.0456 20.9057L27.5983 21.1293L28.0456 20.9057L26.6239 18.0624C26.3547 17.5239 25.9001 17.1006 25.3437 16.8704Z" fill="#AA5EA6" stroke="white"/>
</svg>
