<svg width="20" height="19" viewBox="0 0 20 19" fill="none" xmlns="http://www.w3.org/2000/svg">
<g id="Group">
<g id="Group_2">
<path id="Vector" d="M6.57913 16.5208C6.40398 16.8127 6.11207 16.9879 5.7034 16.8711C5.29472 16.7544 5.23634 16.4041 5.23634 15.9954C4.47738 16.2873 3.66003 16.3457 2.90106 16.2873C2.25886 16.2289 1.67504 16.0538 1.14961 15.7035C0.157112 15.0613 -0.251561 13.8353 0.157112 12.8428C0.332258 12.3173 0.68255 11.9087 1.09122 11.5584C1.55828 11.2081 2.08372 10.8578 2.55077 10.5075C2.60915 10.4491 2.72592 10.3907 2.84268 10.3323C2.60915 10.0988 2.37563 9.92367 2.20048 9.74852C1.73343 9.22308 1.26637 8.75603 0.799314 8.23059C0.215494 7.47163 0.157112 6.5959 0.565786 5.66179C0.68255 5.42826 0.857696 5.13635 0.97446 4.90282C1.20799 4.37738 1.26637 3.79356 1.03284 3.26812C0.857696 2.74269 0.624168 2.27563 0.449022 1.80858C0.39064 1.57505 0.332258 1.34152 0.332258 1.10799C0.273876 0.640937 0.507404 0.290645 1.03284 0.232263C1.79181 0.115499 2.49239 0.232263 3.19297 0.582555C4.47738 1.22476 5.41149 2.21725 6.17045 3.38489C6.9878 4.55253 7.63 5.77855 8.15544 7.06295C8.15544 7.12133 8.21382 7.17972 8.2722 7.35486C8.33059 7.2381 8.44735 7.12133 8.44735 7.06295C8.56411 6.47913 8.6225 5.89531 8.56411 5.31149C8.50573 4.55253 8.09706 3.91033 7.45486 3.50165C7.57162 3.32651 7.68838 3.15136 7.80515 2.91783C9.20632 3.85194 9.43984 5.25311 9.20632 6.82942C10.0237 5.48664 11.0162 4.49415 12.7092 4.61091C12.7092 4.84444 12.6509 5.07797 12.6509 5.31149C11.3664 5.19473 10.6075 5.95369 10.0237 6.88781C9.67337 7.47163 9.61499 7.58839 9.73175 7.82192C9.84852 7.76354 9.9069 7.70515 10.0237 7.64677C11.6 6.71266 13.2931 6.01208 15.1029 5.66179C16.037 5.48664 16.9127 5.42826 17.8468 5.66179C18.5474 5.83693 19.1312 6.12884 19.6567 6.5959C20.1237 7.06295 20.1237 7.53001 19.5983 7.93868C19.3064 8.17221 18.9561 8.40574 18.6058 8.63927C18.4307 8.75603 18.2555 8.87279 18.0804 8.93118C17.3214 9.28147 16.9711 9.92367 16.796 10.741C16.7376 11.2081 16.5624 11.6167 16.3873 12.0254C16.2122 12.4341 15.8619 12.726 15.5116 12.9011C14.811 13.2514 13.9936 13.3682 13.2347 13.485C12.826 13.5433 12.4173 13.5433 12.067 13.6017C12.2422 14.1856 12.4173 14.711 12.5925 15.2948C12.7092 15.8202 12.7676 16.2873 12.7092 16.8127C12.5341 18.2723 11.1913 18.9145 10.082 18.7977C9.03117 18.681 8.15544 18.1555 7.39647 17.3966C7.10457 17.1046 6.87104 16.8127 6.57913 16.5208Z" fill="#B76EF9"/>
</g>
</g>
</svg>
