<svg width="36" height="37" viewBox="0 0 36 37" fill="none" xmlns="http://www.w3.org/2000/svg">
<g id="chevron-left">
<path id="Vector" d="M16.2365 18.5008L16.59 18.1472L22.5175 12.2198C22.5175 12.2197 22.5176 12.2197 22.5176 12.2197C22.7613 11.9759 22.8982 11.6453 22.8982 11.3006C22.8982 10.956 22.7613 10.6254 22.5176 10.3816C22.5176 10.3816 22.5176 10.3815 22.5175 10.3815M16.2365 18.5008L20.3259 10.028C20.6634 9.69055 21.1212 9.50098 21.5985 9.50098C22.0758 9.50098 22.5336 9.69055 22.8711 10.028L22.5175 10.3815M16.2365 18.5008L16.59 18.8543L22.5143 24.7786C22.7493 25.0234 22.8793 25.3506 22.8764 25.6901C22.8734 26.031 22.7367 26.3571 22.4957 26.5981C22.2546 26.8391 21.9285 26.9759 21.5877 26.9788C21.2482 26.9818 20.921 26.8518 20.6761 26.6167L13.4793 19.4199C13.4793 19.4199 13.4793 19.4199 13.4793 19.4199C13.2356 19.1761 13.0987 18.8455 13.0987 18.5008C13.0987 18.1561 13.2356 17.8255 13.4793 17.5817C13.4793 17.5817 13.4793 17.5817 13.4793 17.5817L20.6794 10.3816L16.2365 18.5008ZM22.5175 10.3815C22.2737 10.1379 21.9432 10.001 21.5985 10.001C21.2538 10.001 20.9232 10.1379 20.6794 10.3816L22.5175 10.3815Z" fill="white" stroke="#B76EF9"/>
</g>
</svg>
