<svg width="32" height="32" viewBox="0 0 32 32" fill="none" xmlns="http://www.w3.org/2000/svg">
<g id="cognition">
<mask id="mask0_13_20881" style="mask-type:alpha" maskUnits="userSpaceOnUse" x="0" y="0" width="32" height="32">
<rect id="Bounding box" width="32" height="32" fill="#D9D9D9"/>
</mask>
<g mask="url(#mask0_13_20881)">
<path id="cognition_2" d="M16.3667 20.6998C17.9222 20.6998 19.2444 20.1998 20.3333 19.1998C21.4222 18.1998 21.9667 16.9887 21.9667 15.5665C21.9667 14.2998 21.5611 13.2276 20.75 12.3498C19.9389 11.4721 18.9556 11.0332 17.8 11.0332C16.7556 11.0332 15.8722 11.3665 15.15 12.0332C14.4278 12.6998 14.0667 13.5221 14.0667 14.4998C14.0667 14.9221 14.15 15.3332 14.3167 15.7332C14.4833 16.1332 14.7222 16.4998 15.0333 16.8332L16.9333 14.9332C16.8667 14.8887 16.8167 14.8332 16.7833 14.7665C16.75 14.6998 16.7333 14.6221 16.7333 14.5332C16.7333 14.2887 16.8333 14.0943 17.0333 13.9498C17.2333 13.8054 17.4889 13.7332 17.8 13.7332C18.2444 13.7332 18.6111 13.9165 18.9 14.2832C19.1889 14.6498 19.3333 15.0887 19.3333 15.5998C19.3333 16.2887 19.05 16.8721 18.4833 17.3498C17.9167 17.8276 17.2222 18.0665 16.4 18.0665C15.3556 18.0665 14.4722 17.6443 13.75 16.7998C13.0278 15.9554 12.6667 14.9221 12.6667 13.6998C12.6667 13.0554 12.7889 12.4387 13.0333 11.8498C13.2778 11.2609 13.6222 10.7443 14.0667 10.2998L12.1667 8.39984C11.4556 9.08873 10.9111 9.88873 10.5333 10.7998C10.1556 11.7109 9.96667 12.6665 9.96667 13.6665C9.96667 15.6221 10.5889 17.2832 11.8333 18.6498C13.0778 20.0165 14.5889 20.6998 16.3667 20.6998ZM8 29.3332V23.5998C6.73333 22.4443 5.75 21.0943 5.05 19.5498C4.35 18.0054 4 16.3776 4 14.6665C4 11.3332 5.16667 8.49984 7.5 6.1665C9.83333 3.83317 12.6667 2.6665 16 2.6665C18.7778 2.6665 21.2389 3.48317 23.3833 5.1165C25.5278 6.74984 26.9222 8.87761 27.5667 11.4998L29.3 18.3332C29.4111 18.7554 29.3333 19.1387 29.0667 19.4832C28.8 19.8276 28.4444 19.9998 28 19.9998H25.3333V23.9998C25.3333 24.7332 25.0722 25.3609 24.55 25.8832C24.0278 26.4054 23.4 26.6665 22.6667 26.6665H20V29.3332H17.3333V23.9998H22.6667V17.3332H26.2667L25 12.1665C24.4889 10.1443 23.4 8.49984 21.7333 7.23317C20.0667 5.9665 18.1556 5.33317 16 5.33317C13.4222 5.33317 11.2222 6.23317 9.4 8.03317C7.57778 9.83317 6.66667 12.0221 6.66667 14.5998C6.66667 15.9332 6.93889 17.1998 7.48333 18.3998C8.02778 19.5998 8.8 20.6665 9.8 21.5998L10.6667 22.3998V29.3332H8Z" fill="#241945"/>
</g>
</g>
</svg>
