<svg width="26" height="24" viewBox="0 0 26 24" fill="none" xmlns="http://www.w3.org/2000/svg">
<path id="Vector" d="M8.59213 21.0483C8.36641 21.4245 7.99021 21.6502 7.46354 21.4998C6.93686 21.3493 6.86162 20.8978 6.86162 20.3712C5.8835 20.7474 4.83014 20.8226 3.85203 20.7474C3.02439 20.6721 2.27199 20.4464 1.59484 19.995C0.31576 19.1673 -0.210919 17.5873 0.31576 16.3082C0.541479 15.6311 0.992917 15.1044 1.5196 14.6529C2.12151 14.2015 2.79867 13.7501 3.40059 13.2986C3.47583 13.2234 3.62631 13.1481 3.77679 13.0729C3.47583 12.7719 3.17487 12.5462 2.94915 12.3205C2.34723 11.6434 1.74531 11.0414 1.1434 10.3643C0.390999 9.38616 0.31576 8.25756 0.842438 7.05373C0.992917 6.75277 1.21864 6.37657 1.36912 6.07561C1.67008 5.39845 1.74532 4.64605 1.44436 3.9689C1.21864 3.29174 0.917678 2.68982 0.691958 2.0879C0.616719 1.78694 0.541479 1.48599 0.541479 1.18503C0.466239 0.583108 0.767198 0.13167 1.44436 0.0564298C2.42247 -0.0940497 3.32535 0.0564298 4.22823 0.507868C5.8835 1.33551 7.08734 2.61458 8.06545 4.11938C9.11881 5.62417 9.94645 7.20421 10.6236 8.85948C10.6236 8.93472 10.6988 9.00996 10.7741 9.23568C10.8493 9.0852 10.9998 8.93472 10.9998 8.85948C11.1503 8.10708 11.2255 7.35469 11.1503 6.60229C11.075 5.62417 10.5484 4.79653 9.72073 4.26986C9.87121 4.04414 10.0217 3.81842 10.1722 3.51746C11.9779 4.72129 12.2789 6.52705 11.9779 8.55852C13.0313 6.82801 14.3104 5.54893 16.4923 5.69941C16.4923 6.00037 16.4171 6.30133 16.4171 6.60229C14.7618 6.45181 13.7837 7.42993 13.0313 8.63376C12.5798 9.38616 12.5046 9.53664 12.6551 9.8376C12.8056 9.76236 12.8808 9.68712 13.0313 9.61188C15.0628 8.40804 17.2447 7.50517 19.5771 7.05373C20.781 6.82801 21.9096 6.75277 23.1134 7.05373C24.0163 7.27945 24.7687 7.65565 25.4458 8.25756C26.0478 8.85948 26.0478 9.4614 25.3706 9.98808C24.9944 10.289 24.543 10.59 24.0915 10.891C23.8658 11.0414 23.6401 11.1919 23.4144 11.2672C22.4362 11.7186 21.9848 12.5462 21.7591 13.5996C21.6838 14.2015 21.4581 14.7282 21.2324 15.2549C21.0067 15.7815 20.5553 16.1577 20.1038 16.3835C19.2009 16.8349 18.1476 16.9854 17.1695 17.1359C16.6428 17.2111 16.1161 17.2111 15.6647 17.2863C15.8904 18.0387 16.1161 18.7159 16.3418 19.4683C16.4923 20.1454 16.5675 20.7474 16.4923 21.4245C16.2666 23.3055 14.5361 24.1332 13.1065 23.9827C11.7522 23.8322 10.6236 23.155 9.64549 22.1769C9.26929 21.8007 8.96833 21.4245 8.59213 21.0483Z" fill="url(#paint0_linear_13_48909)"/>
<defs>
<linearGradient id="paint0_linear_13_48909" x1="7.33028" y1="24" x2="7.33028" y2="-2" gradientUnits="userSpaceOnUse">
<stop stop-color="#564A8D"/>
<stop offset="1" stop-color="#B76EF9"/>
</linearGradient>
</defs>
</svg>
