<svg width="19" height="20" viewBox="0 0 19 20" fill="none" xmlns="http://www.w3.org/2000/svg">
<path d="M11.73 19.0206C10.6166 18.8894 9.95458 18.3116 9.6982 17.2729C9.30821 15.6912 9.57904 14.1794 10.2928 12.7603C11.5158 10.33 13.4392 8.59795 15.8863 7.4364C16.3497 7.21613 16.8505 7.12345 17.3789 7.24021C18.024 7.38344 18.4489 7.76621 18.585 8.39574C19.2349 11.3953 18.9172 14.2829 17.4715 17.0117C16.5784 18.6992 15.1412 19.419 13.2478 19.2613C12.9517 19.2361 12.8145 19.082 12.8723 18.816C13.2117 17.2536 13.5692 15.6948 14.147 14.1987C14.2794 13.8556 14.4491 13.5246 14.6236 13.1996C14.8126 12.8469 14.7765 12.5629 14.49 12.3907C14.2024 12.2186 13.8834 12.2896 13.7185 12.6507C13.3742 13.4018 13.0107 14.1565 12.776 14.9449C12.3944 16.2269 12.1116 17.5365 11.7854 18.8352C11.7709 18.893 11.7529 18.9484 11.7312 19.0206H11.73Z" fill="#4F4F4F"/>
<path d="M7.75882 19.2215C6.65866 20.241 5.71859 20.2217 4.37889 19.3816C3.05124 18.5486 2.14006 17.3534 1.57674 15.9126C0.677588 13.6172 0.487407 11.2507 1.0423 8.84458C1.22165 8.06821 1.64896 7.45554 2.48431 7.22925C2.88272 7.12092 3.24383 7.2449 3.58567 7.4086C5.88951 8.50876 7.70586 10.1506 9.04675 12.3196C9.1611 12.505 9.16351 12.6542 9.08407 12.8492C8.52316 14.2118 8.34983 15.6261 8.56288 17.0838C8.60501 17.3678 8.72898 17.6399 8.77593 17.9239C8.79639 18.0491 8.71815 18.1887 8.68565 18.3223C8.55445 18.2838 8.3751 18.2886 8.29927 18.202C7.16541 16.8924 6.05321 15.5647 5.17332 14.0637C5.03731 13.8326 4.93499 13.5811 4.82546 13.3343C4.69907 13.0478 4.44149 12.9046 4.18149 12.9864C3.87937 13.0815 3.69641 13.3728 3.83243 13.6749C4.07316 14.2106 4.31029 14.7655 4.65454 15.2349C5.56572 16.4759 6.53468 17.676 7.48077 18.8905C7.56623 19 7.66012 19.1047 7.75762 19.2203L7.75882 19.2215Z" fill="#4F4F4F"/>
<path d="M14.2828 3.96617C14.1636 4.87735 14.0529 5.76928 13.9289 6.6588C13.8639 7.13064 13.6027 7.49054 13.226 7.76979C12.0091 8.67135 10.9583 9.73419 10.094 10.9788C9.86773 11.3038 9.67514 11.3026 9.43922 10.9908C9.20931 10.6875 8.96376 10.3962 8.74831 10.0833C8.67248 9.97252 8.60386 9.79317 8.63877 9.67882C8.97821 8.59431 9.3369 7.51461 9.70162 6.43732C9.75819 6.27001 9.87254 6.12196 9.95921 5.96427C10.1169 5.6778 10.0603 5.38049 9.82078 5.22401C9.56681 5.05791 9.22376 5.11207 9.06728 5.40818C8.78923 5.93659 8.53646 6.48186 8.31498 7.03675C8.13684 7.48091 8.02129 7.94914 7.87444 8.40533C7.76249 8.75319 7.55787 8.80134 7.26778 8.57987C6.64669 8.10802 6.02318 7.63859 5.38644 7.18721C5.16376 7.02953 5.09394 6.88268 5.18061 6.61185C5.75356 4.83041 6.87779 3.43053 8.23915 2.19917C9.1732 1.35539 10.2048 0.642817 11.3856 0.189031C12.1005 -0.0854074 12.842 -0.111888 13.4426 0.455044C13.6665 0.666891 13.8423 1.00031 13.8988 1.30364C14.0649 2.18473 14.1588 3.07906 14.2804 3.96617H14.2828Z" fill="#4F4F4F"/>
</svg>
