<svg width="594" height="200" viewBox="0 0 594 200" fill="none" xmlns="http://www.w3.org/2000/svg">
<path d="M47.7074 50.521C21.5793 50.521 0.398438 71.7019 0.398438 97.8294V106.192C0.398438 132.321 21.5793 153.502 47.7074 153.502H545.736C571.864 153.502 593.045 132.321 593.045 106.192V97.8294C593.045 71.7019 571.864 50.521 545.736 50.521H47.7074Z" fill="white"/>
<path d="M278.249 180.678C322.884 180.678 359.068 144.495 359.068 99.8582C359.068 55.2229 322.884 19.0406 278.249 19.0406C233.614 19.0406 197.43 55.2229 197.43 99.8582C197.43 144.495 233.614 180.678 278.249 180.678Z" fill="#9460B7"/>
<path d="M365.9 60.2966C350.184 25.9602 315.657 3.77857 277.934 3.77857C240.213 3.77857 205.684 25.9602 189.969 60.2966L187.52 65.6465H193.405H199.273H201.597L202.645 63.5713C217.113 34.9389 246 17.1492 278.034 17.1492C310.066 17.1492 338.954 34.9389 353.421 63.5713L354.469 65.6465H356.793H362.465H368.35L365.9 60.2966Z" fill="#5E3A9E"/>
<path fill-rule="evenodd" clip-rule="evenodd" d="M181.633 69.4243H203.922L206.016 65.2748C206.016 65.2743 206.017 65.2737 206.017 65.2732C219.843 37.9114 247.428 20.927 278.033 20.927C308.636 20.927 336.221 37.9113 350.047 65.2732C350.048 65.2737 350.048 65.2743 350.048 65.2748L352.142 69.4243H374.235L369.335 58.7236C369.335 58.7234 369.335 58.7238 369.335 58.7236C353.004 23.0452 317.135 -0.000190735 277.933 -0.000190735C238.733 -0.000190735 202.862 23.0445 186.533 58.723C186.533 58.7233 186.533 58.7228 186.533 58.723L181.633 69.4243ZM193.404 61.8677C208.505 28.8743 241.692 7.5564 277.933 7.5564C314.176 7.5564 347.362 28.8742 362.464 61.8677H356.793C341.684 31.9658 311.494 13.3704 278.033 13.3704C244.571 13.3704 214.381 31.9649 199.272 61.8668L193.404 61.8677Z" fill="white"/>
<path d="M365.9 139.703C350.184 174.04 315.657 196.221 277.934 196.221C240.213 196.221 205.684 174.04 189.969 139.703L187.52 134.353H193.405H199.273H201.597L202.645 136.428C217.113 165.061 246 182.851 278.034 182.851C310.066 182.851 338.954 165.061 353.421 136.428L354.469 134.353H356.793H362.465H368.35L365.9 139.703Z" fill="#5E3A9E"/>
<path fill-rule="evenodd" clip-rule="evenodd" d="M186.533 141.277C202.863 176.955 238.733 200 277.933 200C317.136 200 353.004 176.955 369.335 141.276L374.235 130.576H352.143L350.048 134.725C336.222 162.088 308.637 179.073 278.033 179.073C247.427 179.073 219.842 162.088 206.016 134.725L203.922 130.576H181.633L186.533 141.277C186.533 141.277 186.533 141.277 186.533 141.277ZM193.404 138.132H199.271C214.381 168.034 244.571 186.63 278.033 186.63C311.494 186.63 341.683 168.035 356.793 138.133L362.463 138.132C347.361 171.126 314.176 192.443 277.933 192.443C241.692 192.443 208.505 171.126 193.404 138.132Z" fill="white"/>
<path d="M255.185 113.985C252.995 115.876 250.347 116.821 247.242 116.821C243.88 116.821 241.143 115.467 239.031 112.756C236.918 110.047 235.861 105.98 235.861 100.557C235.861 95.1359 237.019 90.9119 239.336 87.8856C241.653 84.8601 244.822 83.3476 248.845 83.3476C253.479 83.3476 257.476 85.7745 260.837 90.6291L272.37 78.0521C269.621 73.8913 266.171 70.7234 262.021 68.5485C257.871 66.3735 253.173 65.2855 247.929 65.2855C242.073 65.2855 236.854 66.7686 232.27 69.7303C227.688 72.694 224.111 76.8702 221.54 82.2596C218.968 87.6502 217.682 93.8117 217.682 100.745C217.682 107.808 218.879 113.876 221.273 118.95C223.665 124.024 226.911 127.886 231.01 130.533C235.109 133.18 239.68 134.504 244.721 134.504C250.728 134.504 255.516 132.645 259.08 128.926V132.991H270.842V98.0994H255.185V113.985Z" fill="white"/>
<path d="M308.717 134.504C314.471 134.504 319.64 133.021 324.222 130.059C328.806 127.097 332.395 122.983 334.992 117.719C337.59 112.457 338.888 106.514 338.888 99.8947C338.888 93.275 337.59 87.3343 334.992 82.0701C332.395 76.8075 328.806 72.694 324.222 69.7303C319.64 66.768 314.471 65.2855 308.717 65.2855C302.962 65.2855 297.795 66.768 293.213 69.7303C288.629 72.694 285.04 76.8075 282.443 82.0701C279.845 87.3343 278.547 93.275 278.547 99.8947C278.547 106.514 279.845 112.457 282.443 117.719C285.04 122.983 288.629 127.097 293.213 130.059C297.795 133.021 302.962 134.504 308.717 134.504ZM308.717 116.442C306.476 116.442 304.452 115.767 302.645 114.409C300.837 113.055 299.399 111.133 298.33 108.642C297.26 106.151 296.725 103.236 296.725 99.8947C296.725 96.5546 297.26 93.6392 298.33 91.1474C299.399 88.6579 300.837 86.7357 302.645 85.3802C304.452 84.0241 306.476 83.3476 308.717 83.3476C310.957 83.3476 312.981 84.0241 314.79 85.3802C316.596 86.7357 318.036 88.6579 319.105 91.1474C320.175 93.6392 320.71 96.5546 320.71 99.8947C320.71 103.236 320.175 106.151 319.105 108.642C318.036 111.133 316.596 113.055 314.79 114.409C312.981 115.767 310.957 116.442 308.717 116.442Z" fill="white"/>
<path d="M396.02 120.567H406.949L400.574 107.629C402.424 106.311 403.84 104.535 404.824 102.299C405.806 100.062 406.299 97.4454 406.299 94.4506C406.299 91.2567 405.735 88.4608 404.606 86.0657C403.479 83.6689 401.875 81.8323 399.792 80.5536C397.711 79.2765 395.268 78.6372 392.464 78.6372H377.85V120.567H388.084V110.024H390.859L396.02 120.567ZM395.976 94.4506C395.976 96.0085 395.63 97.2159 394.937 98.0741C394.243 98.9344 393.202 99.3624 391.814 99.3624H388.084V89.5388H391.814C393.202 89.5388 394.243 89.9691 394.937 90.8275C395.63 91.6859 395.976 92.8938 395.976 94.4506ZM431.146 89.2997V78.6372H411.806V89.2997H416.36V109.905H411.806V120.567H431.146V109.905H426.593V89.2997H431.146ZM465.71 83.2496C463.541 81.4533 461.113 80.0748 458.424 79.1166C455.735 78.1584 452.959 77.6791 450.098 77.6791C447.236 77.6791 444.459 78.1584 441.771 79.1166C439.082 80.0748 436.653 81.4533 434.486 83.2496L437.869 93.3123C440.21 91.5153 442.581 90.2791 444.981 89.599V120.567H455.215V89.599C457.614 90.2791 459.985 91.5153 462.326 93.3123L465.71 83.2496ZM489.69 78.6372V93.4924H480.237V78.6372H470.002V120.567H480.237V105.112H489.69V120.567H499.925V78.6372H489.69ZM543.854 77.6791C541.859 77.6791 540.046 78.1489 538.412 79.0865C536.778 80.0246 535.427 81.4332 534.357 83.3087C532.477 79.5564 529.601 77.6791 525.728 77.6791C522.026 77.6791 519.236 79.3958 517.358 82.8299V78.6372H507.471V120.567H517.705V96.0085C517.705 93.7717 518.08 92.0654 518.833 90.8866C519.584 89.7095 520.61 89.1196 521.911 89.1196C523.182 89.1196 524.172 89.6699 524.881 90.7674C525.59 91.866 525.944 93.4528 525.944 95.5291V120.567H536.178V96.0085C536.178 93.7717 536.591 92.0654 537.415 90.8866C538.238 89.7095 539.345 89.1196 540.732 89.1196C542.091 89.1196 543.161 89.6699 543.942 90.7674C544.722 91.866 545.112 93.4528 545.112 95.5291V120.567H555.346V95.1094C555.346 89.4797 554.334 85.166 552.312 82.1711C550.286 79.1768 547.468 77.6791 543.854 77.6791Z" fill="#5E3A9E"/>
<path d="M78.6299 78.6366V102.476C78.6299 105.033 78.2692 106.939 77.5466 108.198C76.8228 109.456 75.6952 110.084 74.1626 110.084C72.63 110.084 71.4965 109.456 70.7593 108.198C70.0219 106.939 69.6528 105.033 69.6528 102.476V78.6366H59.4183V102.476C59.4183 105.033 59.0571 106.939 58.3346 108.198C57.6119 109.456 56.4849 110.084 54.9524 110.084C53.4198 110.084 52.2922 109.456 51.5702 108.198C50.8458 106.939 50.4845 105.033 50.4845 102.476V78.6366H40.25V102.896C40.25 108.846 41.559 113.439 44.1747 116.673C46.7913 119.908 50.4426 121.525 55.1259 121.525C59.0281 121.525 62.1659 120.207 64.5357 117.571C66.9355 120.207 70.0715 121.525 73.9465 121.525C78.6588 121.525 82.3237 119.908 84.9397 116.673C87.5561 113.439 88.8649 108.846 88.8649 102.896V78.6366H78.6299ZM120.565 107.568C119.235 108.526 117.71 109.297 115.99 109.874C114.27 110.454 112.644 110.743 111.111 110.743C107.121 110.743 105.126 109.666 105.126 107.509C105.126 106.59 105.409 105.881 105.973 105.383C106.537 104.884 107.382 104.633 108.509 104.633H118.094V94.2109H109.203C108.191 94.2109 107.469 93.9917 107.036 93.5519C106.602 93.1121 106.384 92.4745 106.384 91.6357C106.384 90.6367 106.825 89.8581 107.706 89.2991C108.589 88.7399 109.925 88.4601 111.719 88.4601C114.465 88.4601 117.197 89.2187 119.915 90.7365L122.69 80.4337C121.129 79.5947 119.357 78.927 117.377 78.4263C115.397 77.9281 113.379 77.6784 111.327 77.6784C107.974 77.6784 105.148 78.277 102.85 79.4755C100.552 80.6738 98.8455 82.2607 97.7333 84.2378C96.6193 86.2145 96.0631 88.3805 96.0631 90.7365C96.0631 92.4545 96.3595 94.0219 96.9516 95.4382C97.5444 96.8573 98.4193 98.0044 99.5751 98.8823C98.0432 99.8027 96.8655 101.1 96.042 102.777C95.2166 104.453 94.8057 106.352 94.8057 108.467C94.8057 111.023 95.4131 113.288 96.627 115.265C97.8407 117.242 99.6401 118.78 102.025 119.878C104.411 120.976 107.309 121.525 110.721 121.525C113.091 121.525 115.419 121.195 117.702 120.537C119.986 119.878 121.939 118.969 123.557 117.812L120.565 107.568ZM128.891 120.567H152.829V109.605H139.125V78.6366H128.891V120.567ZM158.249 120.567H182.188V109.605H168.484V78.6366H158.249V120.567Z" fill="#5E3A9E"/>
</svg>
