<svg width="22" height="23" viewBox="0 0 22 23" fill="none" xmlns="http://www.w3.org/2000/svg">
<path fill-rule="evenodd" clip-rule="evenodd" d="M16.6911 13.0224V13.7047C16.532 13.6745 16.3753 13.646 16.2206 13.6177L16.2206 13.6177L16.2206 13.6177C15.7755 13.5365 15.3464 13.4582 14.9199 13.3542C13.7749 13.0738 12.7141 12.6158 11.8074 11.8353C11.5223 11.5876 11.3681 11.3353 11.4756 10.9521C11.492 10.8833 11.4923 10.8123 11.4926 10.7407C11.4928 10.7099 11.4929 10.6791 11.4943 10.6483C11.512 10.3259 11.5261 10.0027 11.5402 9.67928V9.67926V9.67924V9.67922C11.5746 8.89159 11.6091 8.10269 11.6953 7.32083C11.8308 6.09173 12.1673 4.92338 12.9337 3.89991C13.4992 3.13814 14.1581 2.52126 15.0414 2.15673C15.1068 2.12869 15.1723 2.03055 15.1769 1.96045C15.191 1.7852 15.1892 1.60995 15.1874 1.43469C15.1869 1.37628 15.1863 1.31786 15.1863 1.25944C15.1863 0.936976 15.3639 0.726673 15.6396 0.722C15.9153 0.717326 16.1023 0.927629 16.1069 1.25009C16.11 1.38227 16.109 1.51242 16.108 1.64985C16.1075 1.72138 16.1069 1.79487 16.1069 1.87165C16.8079 1.75949 17.4716 1.83427 18.1445 2.0399C18.1445 1.95111 18.1437 1.86512 18.143 1.7811V1.7811V1.78109C18.1411 1.57767 18.1393 1.38584 18.1492 1.19401C18.1632 0.908935 18.3735 0.712653 18.6259 0.722C18.8876 0.731347 19.0652 0.932302 19.0699 1.21738L19.0721 1.3619V1.36191C19.0766 1.65013 19.0812 1.93786 19.0652 2.22216C19.0559 2.40442 19.1213 2.49789 19.2662 2.59603C21.8786 4.33453 21.9113 8.25084 19.3316 10.0407C18.6493 10.5128 17.9015 10.7791 17.079 10.8633C17.0089 10.8726 16.8967 10.9053 16.8874 10.9474C16.8457 11.1483 16.8194 11.3523 16.7984 11.5145C16.7936 11.5522 16.789 11.5877 16.7846 11.6204C16.8946 11.6798 17.0018 11.7341 17.1056 11.7866C17.3279 11.8992 17.5344 12.0038 17.7193 12.1344C17.9296 12.284 17.9389 12.5317 17.8501 12.7747C17.766 13.0084 17.5791 13.0925 17.3547 13.0831C17.1923 13.0797 17.03 13.0609 16.8657 13.0419C16.8077 13.0352 16.7496 13.0285 16.6911 13.0224ZM15.8886 4.91126L15.8886 4.91128C15.8698 4.97864 15.8503 5.04835 15.8265 5.11966C15.8494 5.17962 15.8696 5.24133 15.8899 5.30318C15.936 5.4438 15.9823 5.58517 16.0602 5.70851C16.1957 5.92816 16.4434 5.90947 16.5976 5.70384C16.822 5.40007 16.822 4.81589 16.5976 4.5168C16.4154 4.27845 16.163 4.28313 16.0181 4.54951C15.9595 4.6576 15.9253 4.77998 15.8886 4.91126ZM18.9234 4.94012L18.9234 4.94013C18.9017 5.00401 18.8797 5.06884 18.8549 5.13368C18.8818 5.20235 18.9053 5.27007 18.9282 5.33607C18.9771 5.47669 19.0233 5.60952 19.0932 5.7272C19.2288 5.95153 19.4484 5.94685 19.6167 5.75057C19.869 5.45147 19.8643 4.7972 19.6026 4.50745C19.4531 4.33921 19.2241 4.32051 19.1073 4.51212C19.0249 4.64058 18.9751 4.78761 18.9234 4.94012ZM9.37688 15.3171C10.0031 14.8451 10.4751 14.2515 10.835 13.5505C12.5081 14.8638 14.4241 15.3498 16.4898 15.4433C16.4857 15.4688 16.4829 15.4928 16.4802 15.5155C16.4734 15.5716 16.4677 15.6196 16.4477 15.6629C16.3589 15.8452 16.429 15.9293 16.6019 16.0134C16.7421 16.0788 16.873 16.191 16.9852 16.3078C17.1487 16.4808 17.1581 16.7004 17.0646 16.9154C16.9711 17.1257 16.8076 17.2565 16.5739 17.2425C16.4258 17.2361 16.28 17.2075 16.1379 17.1796C16.0737 17.167 16.0102 17.1546 15.9477 17.1444C15.808 17.3668 15.6684 17.592 15.528 17.8185L15.5278 17.8188C15.4145 18.0016 15.3007 18.1852 15.1859 18.3688C15.216 18.4032 15.247 18.4367 15.2779 18.4702C15.3478 18.5458 15.4173 18.6211 15.4757 18.7053C15.6579 18.9717 15.6205 19.196 15.3682 19.397C15.0971 19.6119 14.8167 19.5512 14.5363 19.4156C14.4549 19.3776 14.3749 19.3361 14.2949 19.2947C14.1683 19.229 14.0418 19.1634 13.9101 19.1119C12.6342 18.6025 11.4659 17.9202 10.5032 16.9247C10.0452 16.4527 9.66663 15.9246 9.37688 15.3171ZM7.28831 21.3364C7.48459 22.0748 7.72294 22.3271 8.14822 22.2711C8.48003 22.229 8.56882 22.0467 8.59686 21.3364C8.76822 21.313 8.93958 21.2886 9.11094 21.2642C9.45365 21.2154 9.79637 21.1666 10.1391 21.1261C10.1905 21.1214 10.2746 21.1728 10.312 21.2242C10.355 21.2803 10.3935 21.3408 10.432 21.4014L10.432 21.4014C10.4898 21.4923 10.5475 21.5831 10.6204 21.6588C10.8214 21.8645 11.1345 21.8832 11.3729 21.743C11.5598 21.6308 11.6252 21.4205 11.5598 21.1214C11.5364 21.0139 11.5131 20.9111 11.4803 20.7896C11.6446 20.7277 11.8064 20.6658 11.9763 20.6008L11.9774 20.6004C12.1407 20.538 12.3115 20.4726 12.4991 20.4017C10.1952 19.7428 8.61088 18.3407 7.66686 16.2517L7.31049 16.3073C6.83381 16.3817 6.36856 16.4544 5.90032 16.5181C5.73207 16.5415 5.55916 16.5508 5.38624 16.5461C5.18529 16.5368 5.14322 16.6163 5.15257 16.8079C5.22267 18.2706 5.69936 19.6025 6.4471 20.8457C6.46241 20.8699 6.47751 20.8942 6.49254 20.9185C6.6748 21.2125 6.84795 21.4918 7.28831 21.3364ZM3.48886 16.5649C3.53092 18.1585 3.73655 19.7194 4.56374 21.1915C4.4298 21.1726 4.30176 21.1555 4.17778 21.1389C3.90376 21.1023 3.64957 21.0684 3.39539 21.0233C2.67101 20.8971 1.96533 20.7055 1.38583 20.2195C0.96055 19.8643 0.731554 19.4063 0.754921 18.8502C0.825022 17.2192 2.34855 16.4854 3.48886 16.5649Z" fill="#B76EF9"/>
</svg>
