<svg width="140" height="40" viewBox="0 0 140 40" fill="none" xmlns="http://www.w3.org/2000/svg">
<path d="M12.6918 26.3777C11.6666 23.9867 11.1456 21.6008 11.1456 19.284C11.1456 17.7563 11.3715 16.1528 11.8184 14.5155C12.2804 12.8226 12.8318 11.2072 13.459 9.71327C14.0897 8.2092 14.1267 8.64086 14.6764 7.43525C15.0407 6.636 15.216 6.40331 15.6628 5.53156C15.931 5.00716 16.0237 4.42037 15.823 3.869C15.6224 3.31762 15.1823 2.87584 14.614 2.65833L8.82711 0.715858C7.86262 0.346587 6.74131 0.715859 6.2186 1.57581C5.28615 3.11022 4.39922 4.64295 3.58649 6.13353C2.66247 7.82644 2.92551 7.6005 2.24429 9.23102C1.55465 10.8835 1.00327 12.5443 0.607022 14.1698C0.204027 15.829 0 17.5034 0 19.1474C0 20.8875 0.220889 22.6496 0.657607 24.3846C1.08589 26.0877 1.53779 27.7772 2.23924 29.7231C2.84289 31.4042 3.50218 32.6418 4.23229 34.3196C5.01805 36.1271 5.68408 37.2653 6.55078 38.5232C6.9504 39.1032 7.62318 39.427 8.31283 39.427C8.62308 39.427 8.93671 39.3612 9.23179 39.2246L15.3627 36.493C15.8787 36.2536 16.2614 35.8338 16.4419 35.311C16.6189 34.7951 16.57 34.2218 16.307 33.7395C14.9041 31.1732 13.6883 28.6979 12.6935 26.3794L12.6918 26.3777Z" fill="white"/>
<path d="M31.5055 14.3979H37.8335V29.7139H31.5055V14.3979ZM34.6695 13.1659C33.5308 13.1659 32.6068 12.8672 31.8975 12.2699C31.2068 11.6539 30.8615 10.8792 30.8615 9.94587C30.8615 9.01253 31.2068 8.2472 31.8975 7.64987C32.6068 7.03387 33.5308 6.72587 34.6695 6.72587C35.8268 6.72587 36.7508 7.0152 37.4415 7.59387C38.1321 8.17253 38.4775 8.9192 38.4775 9.83387C38.4775 10.8045 38.1321 11.6072 37.4415 12.2419C36.7508 12.8579 35.8268 13.1659 34.6695 13.1659ZM51.2783 14.1179C53.1636 14.1179 54.6756 14.6872 55.8143 15.8259C56.9716 16.9645 57.5503 18.6819 57.5503 20.9779V29.7139H51.2223V22.0699C51.2223 20.3152 50.5969 19.4379 49.3463 19.4379C48.6369 19.4379 48.0583 19.6899 47.6103 20.1939C47.1809 20.6792 46.9663 21.4539 46.9663 22.5179V29.7139H40.6383V14.3979H46.6583V15.9099C47.2556 15.3125 47.9463 14.8645 48.7303 14.5659C49.5143 14.2672 50.3636 14.1179 51.2783 14.1179ZM70.9384 14.1179C72.8238 14.1179 74.3358 14.6872 75.4744 15.8259C76.6318 16.9645 77.2104 18.6819 77.2104 20.9779V29.7139H70.8824V22.0699C70.8824 20.3152 70.2571 19.4379 69.0064 19.4379C68.2971 19.4379 67.7184 19.6899 67.2704 20.1939C66.8411 20.6792 66.6264 21.4539 66.6264 22.5179V29.7139H60.2984V14.3979H66.3184V15.9099C66.9158 15.3125 67.6064 14.8645 68.3904 14.5659C69.1744 14.2672 70.0238 14.1179 70.9384 14.1179ZM88.884 25.3179C89.556 25.3179 90.116 25.2339 90.564 25.0659C91.0307 24.8979 91.5347 24.6085 92.076 24.1979L95.38 27.5299C93.8494 29.1725 91.6187 29.9939 88.688 29.9939C86.84 29.9939 85.216 29.6579 83.816 28.9859C82.416 28.2952 81.3334 27.3432 80.568 26.1299C79.8027 24.9165 79.42 23.5539 79.42 22.0419C79.42 20.5112 79.8027 19.1485 80.568 17.9539C81.3334 16.7405 82.3787 15.7979 83.704 15.1259C85.048 14.4539 86.5507 14.1179 88.212 14.1179C89.724 14.1179 91.1147 14.4259 92.384 15.0419C93.6534 15.6392 94.6614 16.5352 95.408 17.7299C96.1547 18.9059 96.528 20.3152 96.528 21.9579L86.056 23.9739C86.5227 24.8699 87.4654 25.3179 88.884 25.3179ZM88.24 18.4299C87.512 18.4299 86.9147 18.6445 86.448 19.0739C86 19.5032 85.7294 20.1379 85.636 20.9779L90.536 20.0259C90.368 19.5405 90.0787 19.1579 89.668 18.8779C89.276 18.5792 88.8 18.4299 88.24 18.4299ZM104.545 16.0499C105.665 14.7619 107.317 14.1179 109.501 14.1179V19.7179C108.997 19.6432 108.53 19.6059 108.101 19.6059C105.936 19.6059 104.853 20.7072 104.853 22.9099V29.7139H98.525V14.3979H104.545V16.0499Z" fill="#B76EF9"/>
<path d="M127.308 26.3787C128.333 23.9877 128.854 21.6018 128.854 19.285C128.854 17.7573 128.628 16.1537 128.181 14.5165C127.719 12.8236 127.168 11.2082 126.541 9.71424C125.91 8.21018 125.873 8.64185 125.323 7.43623C124.959 6.63699 124.784 6.40429 124.337 5.53254C124.069 5.00814 123.976 4.42136 124.177 3.86998C124.377 3.3186 124.817 2.87682 125.386 2.65931L131.173 0.716835C132.137 0.347563 133.258 0.716836 133.781 1.57678C134.714 3.1112 135.601 4.64393 136.413 6.13451C137.337 7.82742 137.074 7.60147 137.755 9.232C138.445 10.8844 138.996 12.5453 139.393 14.1708C139.796 15.8283 140 17.5027 140 19.1467C140 20.8868 139.779 22.6489 139.342 24.3839C138.914 26.087 138.462 27.7765 137.761 29.7224C137.157 31.4035 136.498 32.6411 135.767 34.3189C134.982 36.1264 134.316 37.2646 133.449 38.5225C133.049 39.1025 132.377 39.4263 131.687 39.4263C131.377 39.4263 131.063 39.3605 130.768 39.2239L124.637 36.4923C124.121 36.2529 123.738 35.833 123.558 35.3103C123.381 34.7944 123.43 34.2211 123.693 33.7388C125.096 31.1725 126.311 28.6972 127.306 26.3787H127.308Z" fill="white"/>
</svg>
