<svg width="22" height="23" viewBox="0 0 22 23" fill="none" xmlns="http://www.w3.org/2000/svg">
<path id="Union" fill-rule="evenodd" clip-rule="evenodd" d="M16.6916 13.0224V13.7047C16.5325 13.6745 16.3758 13.646 16.2211 13.6177L16.2211 13.6177L16.221 13.6177C15.776 13.5365 15.3469 13.4582 14.9204 13.3542C13.7754 13.0738 12.7145 12.6158 11.8079 11.8353C11.5228 11.5876 11.3686 11.3353 11.4761 10.9521C11.4925 10.8833 11.4928 10.8123 11.4931 10.7407C11.4932 10.7099 11.4934 10.6791 11.4948 10.6483C11.5125 10.3259 11.5266 10.0027 11.5407 9.67928V9.67926V9.67924V9.67922C11.5751 8.89159 11.6096 8.10269 11.6957 7.32083C11.8313 6.09173 12.1678 4.92338 12.9342 3.89991C13.4997 3.13814 14.1586 2.52126 15.0419 2.15673C15.1073 2.12869 15.1727 2.03055 15.1774 1.96045C15.1914 1.7852 15.1897 1.60995 15.1879 1.43469C15.1874 1.37628 15.1868 1.31786 15.1868 1.25944C15.1868 0.936976 15.3644 0.726673 15.6401 0.722C15.9158 0.717326 16.1028 0.927629 16.1074 1.25009C16.1105 1.38227 16.1095 1.51242 16.1085 1.64985C16.108 1.72138 16.1074 1.79487 16.1074 1.87165C16.8084 1.75949 17.4721 1.83427 18.145 2.0399C18.145 1.95111 18.1442 1.86512 18.1434 1.7811V1.7811V1.78109C18.1416 1.57767 18.1398 1.38584 18.1497 1.19401C18.1637 0.908935 18.374 0.712653 18.6264 0.722C18.8881 0.731347 19.0657 0.932302 19.0704 1.21738L19.0726 1.3619V1.36191C19.0771 1.65013 19.0817 1.93786 19.0657 2.22216C19.0563 2.40442 19.1218 2.49789 19.2666 2.59603C21.8791 4.33453 21.9118 8.25084 19.3321 10.0407C18.6498 10.5128 17.902 10.7791 17.0795 10.8633C17.0094 10.8726 16.8972 10.9053 16.8879 10.9474C16.8462 11.1483 16.8199 11.3523 16.7989 11.5145C16.7941 11.5522 16.7895 11.5877 16.7851 11.6204C16.8951 11.6798 17.0023 11.7341 17.106 11.7866C17.3284 11.8992 17.5349 12.0038 17.7197 12.1344C17.9301 12.284 17.9394 12.5317 17.8506 12.7747C17.7665 13.0084 17.5795 13.0925 17.3552 13.0831C17.1928 13.0797 17.0304 13.0609 16.8662 13.0419C16.8082 13.0352 16.7501 13.0285 16.6916 13.0224ZM15.8891 4.91126L15.8891 4.91128C15.8703 4.97864 15.8508 5.04835 15.827 5.11966C15.8499 5.17962 15.8701 5.24133 15.8904 5.30318C15.9365 5.4438 15.9828 5.58517 16.0607 5.70851C16.1962 5.92816 16.4439 5.90947 16.5981 5.70384C16.8225 5.40007 16.8225 4.81589 16.5981 4.5168C16.4159 4.27845 16.1635 4.28313 16.0186 4.54951C15.96 4.6576 15.9258 4.77998 15.8891 4.91126ZM18.9239 4.94012L18.9239 4.94013C18.9022 5.00401 18.8802 5.06884 18.8554 5.13368C18.8823 5.20235 18.9058 5.27007 18.9287 5.33607C18.9776 5.47669 19.0238 5.60952 19.0937 5.7272C19.2293 5.95153 19.4489 5.94685 19.6171 5.75057C19.8695 5.45147 19.8648 4.7972 19.6031 4.50745C19.4536 4.33921 19.2246 4.32051 19.1077 4.51212C19.0254 4.64058 18.9756 4.78761 18.9239 4.94012ZM9.37737 15.3171C10.0036 14.8451 10.4756 14.2515 10.8355 13.5505C12.5085 14.8638 14.4246 15.3498 16.4903 15.4433C16.4862 15.4688 16.4834 15.4928 16.4806 15.5155C16.4739 15.5716 16.4682 15.6196 16.4482 15.6629C16.3594 15.8452 16.4295 15.9293 16.6024 16.0134C16.7426 16.0788 16.8735 16.191 16.9857 16.3078C17.1492 16.4808 17.1586 16.7004 17.0651 16.9154C16.9716 17.1257 16.8081 17.2565 16.5744 17.2425C16.4263 17.2361 16.2805 17.2075 16.1384 17.1796C16.0742 17.167 16.0107 17.1546 15.9482 17.1444C15.8085 17.3668 15.6689 17.592 15.5285 17.8185L15.5283 17.8188C15.415 18.0016 15.3012 18.1852 15.1864 18.3688C15.2165 18.4032 15.2475 18.4367 15.2784 18.4702C15.3483 18.5458 15.4178 18.6211 15.4761 18.7053C15.6584 18.9717 15.621 19.196 15.3687 19.397C15.0976 19.6119 14.8172 19.5512 14.5368 19.4156C14.4554 19.3776 14.3753 19.3361 14.2954 19.2947C14.1688 19.229 14.0423 19.1634 13.9106 19.1119C12.6347 18.6025 11.4664 17.9202 10.5037 16.9247C10.0457 16.4527 9.66712 15.9246 9.37737 15.3171ZM7.2888 21.3364C7.48508 22.0748 7.72342 22.3271 8.1487 22.2711C8.48051 22.229 8.56931 22.0467 8.59735 21.3364C8.76871 21.313 8.94007 21.2886 9.11143 21.2642C9.45414 21.2154 9.79685 21.1666 10.1396 21.1261C10.191 21.1214 10.2751 21.1728 10.3125 21.2242C10.3555 21.2803 10.394 21.3408 10.4325 21.4014L10.4325 21.4014C10.4903 21.4923 10.548 21.5831 10.6209 21.6588C10.8219 21.8645 11.135 21.8832 11.3733 21.743C11.5603 21.6308 11.6257 21.4205 11.5603 21.1214C11.5369 21.0139 11.5135 20.9111 11.4808 20.7896C11.6451 20.7277 11.8069 20.6658 11.9768 20.6008L11.9778 20.6004C12.1412 20.538 12.312 20.4726 12.4996 20.4017C10.1957 19.7428 8.61137 18.3407 7.66735 16.2517L7.31097 16.3073C6.83429 16.3817 6.36905 16.4544 5.9008 16.5181C5.73256 16.5415 5.55965 16.5508 5.38673 16.5461C5.18577 16.5368 5.14371 16.6163 5.15306 16.8079C5.22316 18.2706 5.69985 19.6025 6.44759 20.8457C6.4629 20.8699 6.478 20.8942 6.49303 20.9185C6.67529 21.2125 6.84844 21.4918 7.2888 21.3364ZM3.48934 16.5649C3.5314 18.1585 3.73703 19.7194 4.56422 21.1915C4.43029 21.1726 4.30225 21.1555 4.17826 21.1389C3.90425 21.1023 3.65006 21.0684 3.39588 21.0233C2.6715 20.8971 1.96582 20.7055 1.38632 20.2195C0.961039 19.8643 0.732042 19.4063 0.755409 18.8502C0.82551 17.2192 2.34904 16.4854 3.48934 16.5649Z" fill="#B76EF9"/>
</svg>
